<?xml version="1.0" standalone="no"?>
<!DOCTYPE svg PUBLIC "-//W3C//DTD SVG 20010904//EN"
 "http://www.w3.org/TR/2001/REC-SVG-20010904/DTD/svg10.dtd">
<svg version="1.0" xmlns="http://www.w3.org/2000/svg"
 width="564.000000pt" height="322.000000pt" viewBox="0 0 564.000000 322.000000"
 preserveAspectRatio="xMidYMid meet">

<g transform="translate(0.000000,322.000000) scale(0.100000,-0.100000)"
fill="#000000" stroke="none">
<path d="M0 3210 c0 -5 11 -10 24 -10 14 0 27 -4 31 -10 3 -5 -6 -8 -21 -7
-15 1 -29 -4 -31 -10 -3 -8 4 -13 16 -13 11 0 23 -5 27 -12 5 -8 2 -9 -9 -5
-10 3 -17 2 -17 -3 0 -4 13 -11 29 -15 22 -5 30 -13 35 -38 7 -34 16 -28 31
21 5 17 3 22 -7 20 -7 -1 -15 2 -18 7 -3 6 15 12 40 15 l44 5 -27 13 c-38 16
-54 15 -66 -5 -10 -17 -10 -17 -11 -1 0 9 5 20 11 23 18 12 88 12 92 1 2 -7
10 -6 20 3 15 12 17 11 17 -3 0 -16 35 -30 65 -24 10 2 20 -3 23 -11 3 -9 -1
-11 -17 -6 -21 6 -30 -8 -12 -19 16 -11 42 6 39 25 -2 10 0 18 5 19 65 4 89
-1 94 -20 3 -11 10 -20 15 -20 6 0 8 -11 6 -25 -4 -17 -1 -25 8 -25 7 0 18
-15 23 -32 6 -23 9 -26 10 -12 1 28 32 54 64 54 14 0 29 5 33 11 4 6 19 8 37
5 48 -10 90 -56 51 -56 -8 0 -12 -4 -9 -10 3 -5 0 -10 -8 -10 -8 0 -17 -7 -21
-15 -3 -10 -19 -15 -45 -15 -22 0 -42 -4 -45 -9 -3 -4 12 -8 33 -8 25 0 49 -8
66 -21 22 -18 31 -20 49 -10 18 10 19 9 9 -4 -7 -8 -10 -18 -6 -21 3 -4 -1
-15 -9 -24 -8 -10 -19 -25 -23 -33 -8 -13 -7 -13 9 0 10 8 25 15 34 17 9 1 22
9 28 18 6 8 18 13 27 9 9 -3 23 3 33 15 12 13 20 17 25 10 4 -8 14 -4 28 10
12 12 26 19 31 16 5 -3 11 -1 15 5 3 5 13 10 22 10 13 0 12 -5 -7 -25 -29 -31
-18 -46 13 -18 32 30 66 45 84 39 11 -5 14 -2 9 11 -6 14 -4 15 5 6 14 -14 2
-36 -18 -29 -8 3 -11 2 -8 -4 3 -5 0 -14 -7 -19 -7 -6 -24 -20 -38 -32 l-25
-20 25 7 c14 3 29 7 35 8 5 0 14 6 20 13 5 7 29 16 53 22 36 8 43 7 38 -5 -7
-19 3 -18 42 6 24 15 32 16 32 6 0 -15 28 -42 36 -34 2 3 7 16 9 29 3 12 11
29 20 36 8 7 11 8 6 2 -5 -6 -7 -18 -4 -27 5 -11 3 -13 -7 -7 -9 5 -11 4 -6
-3 5 -9 13 -9 27 -2 24 13 25 2 2 -17 -17 -14 -17 -14 2 -8 11 4 25 8 32 9 7
1 16 6 20 11 4 4 2 5 -6 0 -10 -6 -12 -4 -7 4 4 7 13 10 19 8 7 -2 27 2 45 9
17 7 32 10 32 7 0 -3 10 2 21 13 22 19 22 19 10 -4 -16 -30 -5 -62 22 -63 15
-1 11 -4 -13 -11 -19 -5 -39 -14 -45 -19 -5 -5 -17 -9 -27 -9 -10 0 -18 -5
-18 -11 0 -7 18 -9 53 -5 35 4 46 3 32 -3 -11 -5 -30 -10 -42 -10 -24 -1 -32
-16 -12 -23 6 -2 -26 -12 -71 -22 -78 -18 -85 -18 -129 -2 -53 18 -96 22 -71
6 18 -12 -46 -2 -72 11 -24 13 -32 11 -19 -4 9 -11 1 -14 -42 -12 -28 0 -61 5
-72 9 -11 5 -5 -3 13 -16 l33 -26 -38 -7 -38 -8 30 -7 30 -7 -37 -7 c-21 -5
-36 -12 -33 -16 8 -13 -16 -17 -80 -14 -33 2 -50 1 -37 -2 12 -3 22 -10 22
-15 0 -6 -4 -8 -10 -4 -5 3 -21 3 -35 -1 -18 -5 -23 -9 -14 -14 7 -5 18 -6 26
-3 7 3 13 1 13 -4 0 -6 -28 -15 -62 -21 -35 -7 -85 -18 -113 -25 -42 -12 -46
-15 -28 -21 12 -4 32 -2 43 4 12 6 26 10 33 7 6 -2 -18 -18 -53 -35 -36 -18
-55 -30 -43 -27 18 5 22 3 17 -9 -6 -16 -16 -20 -46 -17 -10 1 -26 -2 -35 -8
-16 -9 -15 -10 7 -11 39 0 9 -20 -34 -22 -36 -1 -36 -2 -15 -13 21 -12 21 -13
3 -23 -10 -6 -14 -12 -8 -12 6 0 23 9 37 20 14 11 29 20 33 20 4 0 -1 -9 -11
-20 -29 -32 -2 -23 30 10 30 31 48 33 24 2 -8 -10 0 -3 16 15 29 32 60 48 35
18 -7 -9 -10 -18 -7 -21 7 -8 47 14 47 26 0 6 5 10 11 10 6 0 8 -8 4 -19 -3
-11 -1 -22 4 -26 6 -3 8 0 6 8 -3 7 3 22 15 32 14 12 20 14 20 5 0 -9 7 -7 22
6 19 16 20 16 9 1 -21 -27 -8 -30 23 -6 21 17 25 24 14 30 -9 6 -9 9 -1 9 19
0 25 -18 12 -42 -11 -22 -11 -22 16 2 25 22 27 23 21 5 -7 -19 -6 -19 11 -2
14 14 15 19 5 26 -13 8 -8 16 26 36 12 6 12 3 2 -15 -15 -27 -6 -37 17 -19 17
13 17 12 0 -16 l-18 -30 23 27 c13 15 33 40 46 55 22 27 23 27 12 3 -9 -21 -6
-19 20 10 21 23 30 28 25 15 -4 -11 -8 -32 -10 -48 -2 -15 -7 -33 -10 -40 -3
-6 0 -4 7 7 23 33 62 72 96 95 18 12 30 27 27 32 -4 5 1 6 10 3 13 -5 6 -16
-32 -50 -58 -52 -46 -58 16 -9 58 46 64 44 16 -6 -32 -33 -35 -39 -15 -29 14
7 43 29 64 49 23 21 36 29 33 18 -6 -16 -5 -16 18 -1 32 21 32 8 1 -20 -30
-28 -42 -57 -18 -49 9 3 24 11 32 18 18 14 60 17 60 5 0 -5 -14 -22 -31 -39
-49 -49 -19 -36 36 16 89 84 115 105 115 95 0 -6 -7 -18 -16 -26 -8 -9 -14
-22 -11 -29 2 -6 0 -20 -5 -29 -5 -10 -6 -18 -4 -18 3 0 15 18 26 40 25 48 42
53 29 8 -14 -49 -3 -45 16 7 21 53 41 73 31 29 l-7 -29 19 23 c17 21 18 22 19
3 1 -10 -7 -27 -18 -37 -10 -9 -19 -22 -19 -28 0 -6 11 3 24 19 13 17 28 27
32 23 4 -4 13 -3 21 4 11 9 12 7 7 -7 -13 -32 13 -7 37 35 13 22 26 40 31 40
11 0 10 -14 -1 -26 -5 -5 -12 -20 -15 -34 -5 -17 0 -14 14 12 23 42 40 56 40
34 0 -27 17 -18 31 16 11 27 14 29 20 12 3 -10 4 -23 1 -28 -3 -5 0 -6 5 -3 6
4 16 20 23 37 7 16 16 30 20 30 10 0 0 -51 -13 -67 -10 -14 1 -17 20 -5 6 4
23 31 38 60 14 29 31 50 36 46 6 -3 17 2 25 12 14 18 15 17 11 -8 -6 -38 20
-25 39 20 14 34 15 34 29 16 10 -13 14 -14 15 -5 0 8 8 4 20 -10 12 -15 19
-19 20 -10 0 7 6 11 15 7 9 -3 15 0 15 9 0 11 6 12 30 4 38 -14 29 -23 -75
-73 -44 -22 -91 -47 -105 -57 -14 -9 -27 -16 -30 -15 -3 0 -18 -9 -33 -21 -28
-21 -28 -22 -4 -19 13 1 34 10 47 19 29 20 35 16 20 -15 -10 -18 -6 -17 19 9
35 36 39 45 14 36 -11 -4 -14 -3 -9 5 9 16 21 15 38 -1 27 -27 44 -26 62 3 20
34 76 67 76 45 0 -8 -6 -18 -13 -22 -16 -10 -67 -77 -67 -88 0 -4 9 0 20 10
11 10 20 25 20 33 0 9 7 13 20 9 15 -4 20 0 20 15 0 17 2 18 15 4 8 -8 15 -20
15 -26 0 -6 5 -8 10 -5 8 5 7 11 -1 21 -8 10 -6 20 13 43 26 34 44 41 28 11
-6 -11 -7 -20 -3 -20 4 0 2 -5 -5 -12 -21 -21 -13 -32 8 -13 14 13 24 15 31 8
7 -7 1 -21 -18 -44 l-28 -33 31 23 c18 13 37 34 42 46 10 22 52 54 52 39 0 -3
-11 -19 -25 -36 -31 -37 -35 -72 -4 -37 17 20 20 21 15 5 -7 -21 -3 -18 56 33
30 26 30 43 1 20 -15 -11 -15 -10 1 9 12 14 22 18 26 12 4 -6 11 -10 16 -9 30
5 37 -2 19 -21 -16 -18 -16 -20 -2 -20 10 0 17 4 17 8 0 5 14 19 32 32 l31 23
-27 -36 c-16 -21 -24 -37 -18 -37 12 0 52 53 52 68 0 5 8 16 17 23 15 12 16
12 9 -6 -5 -11 -9 -29 -10 -40 0 -11 -7 -24 -14 -28 -6 -4 -12 -13 -12 -19 0
-6 9 -3 20 7 11 10 17 21 15 25 -3 5 4 28 15 51 11 24 20 40 20 35 0 -5 7 -3
16 5 13 11 14 9 8 -17 -6 -26 -5 -27 7 -11 8 10 26 19 41 21 15 1 35 9 45 17
17 13 17 13 4 -4 -8 -10 -31 -25 -50 -34 -31 -13 -33 -16 -17 -22 18 -7 18 -8
2 -14 -10 -4 -27 -7 -39 -8 -12 0 -16 -3 -9 -6 10 -4 9 -9 -5 -20 -17 -13 -16
-14 7 -7 14 3 31 11 38 17 7 5 15 8 18 5 8 -8 -142 -134 -156 -131 -5 2 -24
-4 -42 -12 l-33 -15 45 5 c57 5 70 8 98 23 12 7 22 10 22 6 0 -3 7 -1 15 6 11
9 15 9 15 1 0 -6 -7 -14 -15 -17 -8 -4 -15 -10 -15 -15 0 -12 80 38 102 63 9
11 22 17 27 14 6 -4 22 11 35 33 27 42 46 59 46 42 0 -6 -4 -11 -10 -11 -5 0
-10 -7 -10 -15 0 -8 -3 -15 -7 -15 -5 0 -16 -14 -25 -30 -22 -39 -14 -38 19 1
20 23 28 27 34 17 9 -14 13 -3 10 32 0 10 1 11 5 2 3 -6 11 -9 17 -5 7 4 8 0
3 -12 -7 -18 -6 -18 13 -1 11 10 23 28 27 40 4 11 10 23 14 26 4 3 14 18 22
34 l15 29 7 -56 c5 -51 3 -60 -23 -99 -16 -23 -26 -49 -23 -57 4 -10 1 -13
-11 -8 -9 3 -19 2 -22 -3 -3 -5 4 -11 15 -15 24 -8 20 -32 -13 -77 -24 -32
-75 -54 -91 -38 -5 5 -19 10 -30 9 -20 0 -20 -1 2 -9 29 -12 28 -17 -10 -34
-18 -7 -46 -25 -63 -40 -32 -28 -41 -31 -49 -17 -3 5 -18 8 -33 6 -34 -2 -86
-23 -61 -24 9 -1 19 3 22 7 6 9 59 7 75 -2 12 -8 50 10 66 30 17 22 129 63
142 53 8 -7 13 -4 18 9 3 11 18 32 33 47 15 15 28 31 28 36 1 5 3 10 4 12 1 1
4 19 6 41 1 21 10 46 19 55 8 10 15 25 15 34 0 9 5 19 10 22 6 4 7 28 4 61 -5
37 -3 54 5 54 6 0 11 -6 11 -14 0 -8 5 -18 11 -22 8 -4 9 1 4 17 -4 18 -4 20
4 10 8 -12 12 -12 25 -2 8 7 19 10 25 7 11 -7 21 16 22 52 0 15 3 21 6 15 7
-19 23 -16 24 5 0 15 1 15 8 -2 6 -16 9 -17 16 -6 7 11 10 10 16 -6 6 -15 8
-11 8 15 1 39 10 38 13 -2 1 -15 6 -27 11 -27 5 0 7 14 5 30 -3 20 0 30 9 30
7 0 13 -11 13 -24 0 -43 15 -36 16 7 0 23 5 41 11 40 5 -1 8 10 6 25 l-3 27
11 -25 12 -25 7 35 c4 19 8 28 9 20 1 -18 17 -2 24 25 4 17 5 17 6 -4 1 -16 5
-21 16 -17 10 3 15 -1 15 -14 0 -10 9 -22 20 -25 11 -4 17 -11 14 -17 -4 -6
-2 -8 4 -4 23 14 39 -58 19 -83 -10 -12 -9 -14 5 -8 13 4 23 -6 43 -40 l26
-47 -33 -25 c-17 -15 -39 -31 -47 -38 -9 -7 -11 -12 -6 -13 6 0 35 19 65 41
l55 41 -35 -37 c-39 -41 -86 -69 -100 -60 -6 3 -18 2 -27 -4 -14 -7 -10 -9 18
-7 20 2 42 6 48 11 17 10 136 16 125 6 -5 -4 -27 -20 -49 -35 -22 -14 -35 -26
-30 -26 6 0 20 7 32 15 17 12 28 13 49 5 15 -6 25 -12 23 -14 -5 -5 -70 -16
-154 -25 -38 -5 -65 -9 -60 -10 18 -4 -29 -20 -62 -20 -17 -1 -34 -5 -37 -9
-2 -4 11 -6 31 -4 25 3 34 1 29 -7 -4 -6 -19 -11 -34 -11 -33 0 -107 -36 -93
-44 5 -3 21 -2 35 4 16 6 26 6 26 0 0 -5 -12 -13 -27 -16 -16 -4 -42 -18 -59
-31 -17 -12 -37 -23 -45 -23 -8 0 -41 -14 -74 -31 -44 -22 -52 -29 -30 -25 17
2 38 8 48 11 10 4 17 3 17 -4 0 -6 -9 -11 -19 -11 -11 0 -23 -5 -27 -12 -5 -8
-2 -9 9 -5 10 4 17 1 17 -5 0 -6 11 -1 25 12 28 26 45 21 25 -7 -8 -10 -3 -7
11 8 13 14 29 34 35 44 6 10 16 21 23 23 6 2 0 -17 -14 -42 l-26 -46 29 17
c42 26 129 103 116 103 -6 0 -19 -9 -29 -20 -10 -11 -23 -20 -28 -20 -15 0 17
32 51 53 27 15 30 15 28 1 -1 -9 -15 -31 -30 -50 -40 -50 -24 -41 30 16 26 28
51 50 57 50 5 0 5 -5 -2 -13 -6 -8 -8 -17 -4 -21 4 -4 0 -4 -10 0 -13 5 -16 2
-11 -10 4 -9 0 -18 -9 -22 -9 -3 -18 -12 -21 -20 -3 -9 -1 -12 4 -9 6 3 10 1
10 -6 0 -7 24 13 52 44 29 32 58 57 65 57 7 0 16 6 20 13 4 7 22 18 38 25 30
12 30 12 7 -5 -37 -29 -104 -95 -99 -99 2 -2 14 7 27 21 13 14 29 25 36 25 6
0 17 7 24 15 7 9 15 13 18 10 3 -3 -3 -11 -13 -19 -12 -8 -14 -15 -7 -20 6 -4
19 6 29 21 29 46 71 84 76 70 2 -7 10 1 19 17 8 16 18 24 21 19 4 -6 -5 -21
-18 -33 -14 -13 -25 -20 -25 -15 0 5 -14 -10 -31 -33 -17 -24 -29 -46 -25 -49
8 -8 36 17 36 32 0 7 7 19 16 26 15 12 16 11 9 -11 -7 -22 -6 -23 8 -11 9 7
16 16 15 19 -2 22 4 32 23 32 11 0 17 -4 14 -10 -3 -5 -2 -10 3 -10 5 0 13 10
17 23 7 21 8 20 14 -8 l7 -30 8 32 c4 18 12 33 18 33 6 0 7 -8 4 -17 -6 -14
-3 -14 15 3 l22 19 -6 -35 c-6 -32 -5 -31 18 15 14 28 25 60 25 73 0 14 4 21
11 16 7 -4 9 -21 6 -40 -3 -19 -2 -36 2 -38 3 -3 7 3 8 12 4 43 30 125 36 114
4 -6 5 -22 1 -35 -3 -15 -1 -28 7 -32 9 -6 11 5 7 44 -5 55 2 65 21 29 11 -22
11 -22 6 -1 -3 12 -1 24 5 28 6 4 9 3 8 -2 -3 -10 53 -90 68 -97 7 -2 9 5 6
20 -6 35 5 29 27 -13 22 -41 27 -40 11 1 -15 39 -3 31 20 -13 23 -47 39 -59
51 -40 6 10 9 11 9 2 0 -7 4 -13 9 -13 6 0 7 16 4 37 -4 26 -3 34 5 29 7 -4
12 -16 12 -27 0 -10 5 -19 11 -19 5 0 8 -4 4 -9 -3 -5 0 -21 6 -35 10 -21 14
-23 25 -11 8 8 11 21 7 32 -11 30 5 10 37 -48 33 -59 38 -61 15 -5 -19 45 -14
46 15 4 17 -26 20 -28 15 -9 -5 16 -4 21 4 17 6 -4 11 -16 11 -27 0 -11 5 -17
10 -14 6 4 8 11 5 16 -12 18 14 9 28 -11 7 -10 26 -24 42 -30 23 -9 11 6 -49
65 -75 73 -94 106 -41 71 28 -19 33 -13 9 12 -9 9 -12 18 -7 19 5 2 8 18 6 36
-4 27 -2 30 9 17 19 -23 67 -52 76 -46 5 3 16 -8 26 -25 9 -16 25 -29 34 -30
26 -1 77 -34 80 -52 4 -22 -43 -69 -94 -95 -45 -23 -141 -52 -176 -53 -22 0
-22 -1 -3 -9 16 -7 14 -9 -15 -9 -24 -1 -31 -4 -21 -10 15 -10 6 -18 -30 -25
-43 -9 -114 -35 -99 -35 13 -1 13 -2 0 -12 -15 -11 2 -9 85 7 l30 5 -35 -31
c-32 -29 -33 -31 -10 -25 14 4 38 16 54 27 24 17 28 18 23 5 -8 -21 -8 -21 38
-1 36 15 58 12 39 -5 -14 -13 -139 -51 -171 -52 -27 -1 -27 -1 -4 -8 l24 -6
-27 -13 c-15 -6 -36 -12 -47 -12 -13 0 -18 -4 -13 -12 4 -6 3 -8 -3 -5 -6 4
-23 1 -37 -7 -21 -10 -23 -15 -11 -19 8 -4 22 -4 31 0 12 4 15 2 12 -8 -5 -15
-90 -49 -123 -49 -11 0 -27 -5 -35 -11 -12 -9 -12 -10 4 -5 15 5 17 4 7 -7 -6
-8 -21 -12 -34 -10 -14 3 -26 -3 -34 -15 -10 -17 -9 -20 13 -25 13 -2 24 -1
24 4 0 4 9 7 21 6 20 -1 20 -3 -6 -24 -14 -13 -20 -23 -13 -23 6 0 30 17 52
38 l40 37 -28 -40 c-25 -37 -24 -36 18 10 49 53 59 51 25 -4 -27 -45 -18 -50
15 -6 27 35 66 63 66 47 0 -5 -11 -21 -25 -36 -16 -18 -20 -26 -10 -26 8 0 21
12 29 28 20 39 47 60 76 58 14 -1 31 2 38 7 17 13 15 -4 -4 -31 -27 -39 1 -24
35 19 18 22 36 38 39 35 3 -3 -2 -14 -11 -24 -10 -10 -17 -22 -17 -27 0 -5 14
10 31 33 17 23 37 42 45 42 7 0 19 10 25 22 8 15 14 18 17 10 2 -7 -4 -23 -14
-35 -10 -12 1 -4 24 18 45 42 72 83 65 101 -2 6 7 19 19 30 l23 19 -18 -21
c-14 -17 -15 -23 -5 -27 10 -4 11 -7 1 -18 -20 -20 -15 -31 7 -19 24 13 25 7
4 -26 -9 -13 -14 -27 -11 -30 3 -3 16 13 29 35 13 22 26 41 30 41 18 0 15 -20
-8 -56 -24 -36 -24 -37 -2 -13 13 15 31 41 41 59 10 18 20 30 23 27 3 -3 0
-15 -6 -27 -6 -12 -10 -24 -7 -26 2 -3 12 10 20 28 16 31 17 32 18 8 0 -14 3
-19 6 -12 2 6 12 12 20 12 15 0 15 -10 -2 -55 -5 -13 2 -9 22 13 31 34 62 36
65 3 0 -9 2 -21 2 -28 1 -6 14 -23 29 -37 35 -33 26 -49 -25 -44 -32 3 -36 2
-23 -8 17 -13 4 -30 -14 -19 -5 3 -31 -4 -58 -15 -26 -12 -38 -19 -25 -16 18
3 22 1 18 -11 -5 -13 -4 -14 9 -3 9 7 18 11 20 8 12 -12 -28 -30 -71 -33 -43
-3 -76 -15 -41 -15 10 0 17 -5 17 -11 0 -7 -16 -8 -45 -3 -29 4 -45 3 -45 -4
0 -6 6 -13 13 -16 6 -3 1 -3 -13 0 -14 3 -41 -2 -60 -10 l-35 -16 43 6 c30 5
42 3 42 -6 0 -9 7 -8 25 4 41 27 41 18 0 -25 -27 -28 -33 -38 -17 -30 34 18
26 -1 -15 -31 -24 -19 -31 -28 -19 -28 9 0 33 16 52 35 19 20 39 33 45 30 5
-4 9 0 9 8 0 8 7 18 17 21 14 6 14 8 -3 21 -17 13 -15 13 16 2 19 -6 37 -13
40 -15 2 -1 -16 -21 -40 -43 -45 -40 -40 -43 12 -7 14 10 33 16 41 12 9 -3 21
4 30 16 8 12 27 28 42 36 l26 13 -21 -29 c-28 -39 -12 -38 26 1 l29 30 6 -23
c6 -23 6 -23 19 5 10 20 18 26 32 21 12 -3 27 1 39 12 12 11 19 13 19 5 0 -7
-15 -18 -33 -26 -19 -8 -40 -22 -48 -31 -9 -12 -9 -15 -1 -10 7 4 12 2 12 -4
0 -7 6 -10 12 -7 7 2 12 11 10 18 -1 8 4 6 13 -5 14 -18 15 -18 24 8 15 37 21
32 15 -12 l-4 -37 12 39 c7 22 19 41 27 44 10 3 11 0 2 -16 -6 -11 -11 -29
-10 -39 0 -14 3 -12 11 7 35 84 48 92 43 28 -3 -34 -2 -38 5 -18 4 14 11 37
14 52 5 20 10 25 26 21 11 -3 28 -15 38 -27 28 -35 41 -39 141 -43 87 -3 98
-5 131 -32 19 -15 37 -38 38 -51 2 -14 0 -20 -7 -16 -6 4 -11 2 -11 -3 0 -6
-7 -11 -15 -11 -8 0 -15 5 -15 11 0 5 4 8 9 5 5 -3 14 1 22 10 20 24 -16 51
-77 58 -40 4 -51 2 -51 -10 0 -17 9 -18 24 -3 8 8 13 7 18 -3 5 -7 5 -10 0 -6
-4 4 -14 3 -20 -2 -15 -13 -47 -2 -38 13 3 5 1 7 -4 4 -17 -11 -12 -56 6 -60
17 -5 -32 -11 -63 -7 -11 1 -15 -3 -12 -9 4 -6 0 -11 -8 -11 -9 0 -16 -5 -16
-12 0 -6 -3 -8 -6 -5 -4 4 -1 14 6 22 12 14 10 15 -16 9 -39 -9 -45 -14 -38
-25 3 -6 -9 -8 -30 -6 -20 3 -39 0 -43 -6 -4 -6 -1 -7 7 -2 8 5 11 3 8 -6 -3
-8 -11 -13 -17 -12 -6 2 -11 -2 -11 -7 0 -16 -36 -12 -50 5 -9 11 -22 14 -43
9 -20 -4 -32 -2 -38 7 -7 11 -9 10 -9 -3 0 -10 -7 -18 -16 -18 -9 0 -12 5 -8
13 5 7 0 6 -11 -3 -14 -11 -19 -12 -22 -2 -3 6 -12 12 -21 12 -13 0 -14 -2 -4
-9 11 -6 10 -10 -4 -15 -11 -4 -20 -2 -22 3 -5 15 -48 14 -75 -1 -29 -16 -47
-18 -47 -7 0 5 -10 8 -22 7 -13 -2 -24 2 -25 7 -1 6 6 9 15 8 10 -1 11 0 4 3
-6 3 -9 10 -6 16 3 5 -3 4 -15 -4 -12 -7 -21 -18 -21 -25 0 -19 -18 -16 -22 4
-2 13 -9 10 -35 -15 -27 -28 -49 -38 -87 -41 -5 -1 -3 -7 3 -15 8 -10 8 -16
-3 -25 -10 -8 -16 -9 -21 -1 -3 5 -1 10 5 10 6 0 8 5 4 12 -5 8 -11 5 -17 -10
-11 -24 -48 -39 -67 -27 -8 5 -8 11 1 21 8 10 16 11 22 5 6 -6 14 -5 22 2 10
9 -17 28 -119 83 -112 60 -219 124 -326 193 l-24 16 23 -31 c13 -18 34 -38 47
-45 13 -7 24 -17 24 -22 0 -6 -8 -3 -17 5 -10 9 -29 19 -43 23 -14 4 -34 16
-45 26 -21 19 -105 53 -112 45 -3 -2 7 -12 21 -21 14 -10 26 -23 26 -30 0 -7
10 -25 22 -40 12 -16 16 -26 8 -23 -7 2 -21 19 -31 37 -24 45 -46 67 -80 81
-33 14 -30 34 4 21 14 -5 30 -5 40 0 13 8 17 6 17 -5 0 -8 15 -20 34 -26 19
-6 47 -21 63 -32 l28 -22 -23 25 c-12 14 -19 29 -15 33 4 4 -1 4 -11 0 -13 -5
-17 -4 -12 4 3 6 1 14 -5 18 -8 5 -10 2 -5 -7 4 -8 0 -5 -9 6 -9 11 -21 19
-27 17 -6 -2 -15 3 -19 10 -6 8 -9 9 -9 2 0 -7 -7 -15 -16 -18 -11 -4 -15 -2
-11 8 3 8 -2 20 -11 28 -15 12 -16 11 -3 -4 29 -38 -17 -18 -77 32 -68 57 -91
66 -45 18 16 -18 33 -41 36 -51 6 -15 4 -16 -14 -6 -11 6 -38 27 -60 46 -21
19 -39 31 -39 25 0 -6 14 -21 32 -33 17 -13 26 -25 20 -27 -6 -2 -27 9 -47 23
-19 15 -35 24 -35 20 0 -4 8 -14 18 -21 9 -8 12 -14 5 -14 -13 0 -56 54 -67
84 -3 10 -9 17 -12 14 -8 -8 16 -61 39 -87 l22 -25 -30 21 c-34 24 -59 48 -80
78 -12 17 -14 18 -15 3 0 -9 4 -20 10 -23 5 -3 10 -15 10 -26 0 -10 9 -24 20
-31 11 -7 20 -17 20 -21 0 -5 9 -20 20 -34 11 -15 18 -28 15 -31 -3 -3 -11 3
-19 13 -7 10 -23 20 -34 22 -19 2 -21 -1 -16 -30 3 -25 3 -27 -5 -12 -5 12
-16 27 -25 34 -9 7 -16 26 -16 42 0 16 -4 29 -10 29 -9 0 -7 -23 6 -88 3 -13
8 -21 12 -18 5 3 6 -8 4 -24 -2 -16 -9 -27 -16 -24 -6 2 -19 -8 -28 -23 l-16
-27 3 32 c1 18 5 35 9 39 7 7 8 53 1 53 -2 0 -23 -19 -45 -42 l-41 -43 37 55
c19 30 31 56 26 58 -5 1 -7 14 -4 29 7 39 -16 19 -40 -34 -11 -24 -30 -60 -44
-80 -32 -47 -32 -68 -1 -53 21 11 21 10 3 -4 -11 -9 -24 -16 -29 -16 -6 0 -16
-8 -24 -17 -9 -12 -8 -6 3 17 l17 35 -21 -19 c-27 -24 -52 -15 -46 16 4 17
-11 6 -55 -42 -34 -35 -61 -61 -61 -56 0 5 8 19 17 30 13 15 10 14 -10 -3 -15
-14 -27 -30 -27 -36 0 -6 -9 -21 -20 -33 -25 -26 -50 -30 -28 -4 8 9 18 30 22
46 6 23 4 27 -8 22 -9 -3 -23 -9 -33 -13 -10 -4 -14 -2 -10 4 4 6 19 14 34 18
41 10 66 29 103 77 l34 43 -38 -35 c-28 -25 -35 -29 -27 -13 8 16 8 24 -1 29
-6 4 -8 3 -5 -2 3 -5 -7 -17 -23 -26 -27 -15 -28 -15 -23 0 6 16 -24 -5 -62
-43 -6 -5 -22 -19 -35 -30 -31 -25 69 88 119 133 20 19 29 30 21 26 -24 -12
-223 -146 -245 -164 -24 -21 -59 -34 -50 -20 10 17 -4 11 -66 -25 -66 -39 -84
-45 -48 -16 38 29 109 62 119 56 6 -3 15 -3 21 1 25 15 -16 22 -49 8 -43 -18
-52 -17 -28 1 31 24 4 18 -67 -15 -76 -34 -87 -36 -87 -15 0 8 -6 15 -14 15
-8 0 -16 7 -20 15 -3 8 -12 15 -20 15 -7 0 -16 10 -19 22 -4 12 -9 19 -13 15
-4 -4 -14 2 -21 13 -8 11 -18 18 -23 15 -4 -3 -10 4 -13 15 -4 17 -9 19 -30
11 -15 -6 -28 -6 -34 0 -6 6 -20 4 -38 -5 -19 -10 -33 -12 -40 -6 -7 6 -14 7
-18 4 -3 -3 -22 -9 -41 -14 -28 -6 -36 -5 -36 6 0 15 -22 19 -34 7 -3 -4 -14
-8 -22 -9 -33 -5 -44 -13 -37 -30 4 -12 3 -15 -5 -10 -17 10 -15 27 5 42 10 7
13 14 7 14 -6 0 -17 -7 -24 -15 -15 -19 -106 -11 -130 11 -12 12 -9 14 25 16
22 0 52 0 67 -1 14 -1 29 3 33 8 3 6 11 11 16 11 6 0 8 -4 5 -8 -4 -7 99 -7
154 1 14 1 37 0 52 -4 41 -11 70 0 66 25 -2 11 -7 20 -13 18 -5 -2 -13 7 -16
20 -4 16 -12 22 -27 21 -13 -2 -23 4 -27 16 -5 15 -67 44 -100 46 -5 0 -16 4
-22 8 -7 5 -13 4 -13 -1 0 -6 -18 -9 -40 -9 -28 2 -40 6 -40 17 0 24 -39 35
-122 35 -69 0 -78 2 -78 18 0 14 -5 17 -19 12 -11 -3 -29 -8 -42 -10 -12 -2
-24 -7 -27 -10 -3 -2 -12 1 -20 8 -12 9 -16 9 -19 0 -3 -8 -14 -11 -29 -7 -17
4 -26 1 -30 -10 -7 -19 14 -49 28 -40 11 7 58 -15 58 -28 0 -12 -38 -10 -63 4
-20 10 -21 10 -9 -5 8 -9 27 -17 44 -19 49 -5 48 -28 -1 -28 -22 0 -43 -5 -46
-10 -11 -17 -23 -2 -18 23 7 34 -11 92 -28 93 -15 0 -44 10 -70 24 -8 4 -27 6
-42 3 -32 -6 -32 -6 -11 35 19 39 30 47 38 26 6 -15 8 -15 24 -2 9 9 23 13 31
10 8 -2 11 0 7 6 -4 6 2 8 15 5 21 -6 21 -7 4 -20 -11 -7 -28 -10 -39 -7 -18
6 -19 5 -7 -10 12 -14 11 -16 -3 -16 -9 0 -16 -4 -16 -9 0 -6 21 -11 48 -13
35 -2 55 2 77 18 34 24 79 37 89 27 10 -10 196 -12 196 -2 0 4 -11 19 -25 33
-14 14 -25 30 -25 36 0 6 -5 8 -11 4 -6 -3 -15 0 -20 7 -4 8 -12 14 -16 14 -4
1 -18 6 -30 13 -12 6 -28 9 -36 6 -8 -3 -17 2 -21 12 -5 13 -9 14 -20 5 -11
-10 -17 -8 -24 6 -8 13 -21 17 -51 16 -23 -1 -41 2 -41 8 0 5 -9 9 -21 9 -11
0 -29 5 -40 10 -13 7 -25 7 -38 1 -15 -9 -20 -7 -24 9 -7 26 -37 26 -44 -1 -4
-13 -11 -18 -21 -14 -8 3 -20 1 -27 -5 -7 -6 -17 -10 -21 -8 -16 3 -86 -32
-103 -51 -10 -11 -29 -23 -44 -26 -25 -7 -31 -18 -30 -53 1 -9 -8 -11 -30 -6
-25 5 -29 4 -24 -10 4 -10 1 -16 -7 -16 -8 0 -26 -14 -41 -32 -25 -29 -25 -32
-9 -41 12 -7 19 -7 21 0 2 6 21 7 48 3 25 -4 47 -5 50 -2 7 7 74 16 105 13 14
-1 63 -4 109 -7 114 -8 151 -36 116 -88 -10 -14 -11 -23 -4 -32 10 -13 0 -62
-22 -106 -5 -10 -9 -28 -9 -41 0 -47 -95 -103 -155 -91 -19 3 -39 12 -46 20
-6 8 -24 14 -40 14 -16 0 -29 5 -29 10 0 14 -33 13 -48 -2 -13 -13 -16 -70 -5
-82 4 -3 8 -14 9 -24 2 -9 6 -29 10 -44 5 -22 -2 -40 -31 -83 -20 -31 -44 -59
-53 -62 -10 -3 -34 -23 -55 -45 -21 -21 -45 -38 -55 -38 -9 0 -28 -12 -41 -26
-20 -21 -31 -24 -56 -20 -24 5 -36 1 -50 -14 -13 -15 -26 -19 -42 -15 -12 3
-31 0 -42 -6 -16 -11 -26 -6 -69 31 l-51 43 -27 -19 c-15 -11 -33 -23 -40 -29
-10 -7 -22 -1 -45 22 l-32 31 45 7 c24 4 53 5 64 3 16 -2 19 3 18 30 -2 35 11
44 19 12 3 -11 0 -20 -6 -20 -8 0 -7 -4 1 -12 13 -13 90 -12 107 2 6 5 43 7
81 4 132 -11 165 -10 185 4 10 7 19 21 19 30 0 9 9 31 20 47 24 37 24 39 3 61
-13 13 -14 19 -5 22 19 6 14 22 -6 22 -11 0 -25 14 -36 36 -15 32 -15 39 -2
59 8 12 13 31 10 41 -5 21 79 124 101 124 6 0 25 11 41 25 31 27 40 30 46 16
2 -8 91 -15 132 -12 5 1 -1 12 -13 25 -13 14 -29 22 -37 19 -8 -3 -14 1 -14
11 0 9 -5 16 -11 16 -5 0 -8 4 -5 9 3 5 -13 8 -35 7 -39 -2 -43 0 -56 32 -12
30 -17 33 -43 27 -20 -4 -30 -3 -30 5 0 7 -8 10 -19 7 -12 -3 -27 3 -37 14
-21 23 -31 24 -51 4 -8 -9 -23 -13 -33 -10 -12 4 -20 0 -24 -12 -6 -19 -59
-25 -83 -10 -14 9 -46 -6 -76 -34 -11 -10 -24 -16 -28 -14 -19 12 -119 -58
-104 -73 6 -7 131 -5 153 2 11 4 23 2 27 -4 3 -6 11 -8 16 -5 5 4 9 3 9 -2 0
-10 51 -10 67 0 14 9 66 -10 59 -22 -3 -5 1 -11 9 -15 19 -7 19 -22 0 -30 -8
-3 -14 0 -12 6 1 7 -17 16 -40 21 -34 8 -45 7 -58 -7 -11 -10 -25 -14 -41 -10
-16 4 -24 2 -24 -6 0 -9 -4 -9 -12 -3 -7 6 -25 12 -40 15 -20 4 -29 0 -36 -16
-9 -18 -11 -18 -11 -3 -1 23 -24 22 -45 -2 -10 -11 -24 -17 -31 -15 -7 3 -19
-1 -26 -9 -8 -7 -20 -12 -26 -10 -7 3 -18 -7 -24 -21 -7 -14 -19 -26 -26 -26
-8 0 -13 -6 -10 -12 2 -9 22 -12 60 -10 41 2 58 -1 64 -12 12 -22 94 -49 107
-36 11 11 12 11 -31 15 -40 3 -63 12 -63 23 0 5 19 8 42 6 25 -2 46 2 50 9 6
9 8 9 8 0 0 -7 11 -13 25 -13 14 0 24 3 24 8 -5 28 2 32 27 16 18 -12 22 -19
13 -25 -7 -4 -18 -5 -26 -2 -7 3 -13 1 -13 -5 0 -5 25 -9 55 -8 61 0 95 -19
123 -69 9 -16 27 -47 40 -68 21 -35 22 -41 9 -55 -9 -10 -19 -30 -23 -45 -8
-33 -32 -47 -45 -26 -5 8 -3 20 7 30 21 24 17 35 -6 14 -11 -10 -20 -26 -20
-35 0 -23 -8 -29 -31 -23 -23 6 -26 23 -3 23 8 0 13 4 9 9 -3 6 8 20 25 32 16
13 30 25 30 28 0 12 -58 31 -74 25 -11 -4 -16 -1 -16 10 0 9 -3 17 -7 17 -45
7 -69 7 -82 -1 -10 -5 -19 -3 -26 7 -10 13 -15 14 -36 2 -13 -7 -28 -14 -34
-14 -5 -1 -23 -7 -38 -13 -16 -7 -32 -10 -37 -7 -5 3 -12 1 -15 -5 -5 -8 -11
-7 -21 1 -11 9 -15 7 -21 -6 -12 -32 -72 -87 -85 -78 -7 4 -22 9 -32 10 -11 2
-20 4 -21 6 -1 1 -19 27 -41 57 -21 30 -47 71 -56 92 -9 21 -22 38 -28 38 -5
0 -10 7 -10 15 0 16 -54 48 -64 38 -3 -4 -6 -384 -6 -845 l0 -838 2820 0 2820
0 -1 1088 c0 598 -5 1078 -9 1067 -7 -16 -9 -17 -9 -3 -1 9 4 20 9 23 6 3 10
15 10 26 0 17 -5 19 -30 15 -27 -4 -29 -2 -20 15 7 11 16 16 27 12 11 -4 14
-3 9 5 -4 7 -2 12 3 12 7 0 11 29 10 78 0 42 -3 71 -6 65 -2 -7 -14 -13 -25
-13 -14 0 -18 -5 -14 -15 3 -8 1 -15 -4 -15 -6 0 -10 4 -10 10 0 6 -9 6 -26 0
-23 -9 -25 -8 -18 12 6 20 5 21 -9 9 -9 -7 -14 -17 -11 -22 5 -8 -10 -13 -29
-10 -4 1 -15 -6 -24 -15 -9 -9 -25 -13 -37 -10 -20 5 -20 4 3 -15 18 -14 21
-22 12 -32 -8 -10 -7 -17 1 -25 9 -9 8 -12 -5 -12 -9 0 -17 7 -17 15 0 8 -3
14 -7 14 -19 -3 -47 3 -35 8 20 8 14 20 -13 25 -13 3 -26 0 -29 -6 -3 -7 -5
-7 -5 2 -1 6 -6 12 -11 12 -7 0 -7 -6 0 -20 9 -17 8 -19 -7 -13 -17 6 -17 5 0
-14 9 -11 17 -24 17 -29 0 -5 -4 -3 -9 5 -6 9 -15 11 -27 6 -11 -5 -22 -7 -26
-7 -5 1 -8 -3 -8 -8 0 -6 7 -10 16 -10 9 0 14 -6 11 -12 -2 -7 -14 -12 -25
-10 -16 2 -20 -1 -16 -12 3 -9 1 -16 -5 -16 -6 0 -11 4 -11 9 0 5 -6 11 -14
14 -9 4 -12 0 -9 -13 3 -9 19 -22 36 -27 18 -4 36 -19 42 -31 5 -12 16 -22 23
-22 8 0 12 -8 10 -20 -2 -10 6 -26 17 -34 17 -13 18 -15 3 -16 -9 0 -31 20
-48 44 -37 55 -58 62 -115 40 -47 -17 -75 -9 -75 22 0 10 -13 14 -42 14 -34 0
-46 -6 -67 -30 -28 -31 -48 -37 -98 -25 -38 9 -42 27 -11 49 12 9 18 16 12 16
-5 0 -19 -7 -31 -15 -14 -10 -24 -12 -28 -5 -3 5 0 10 7 11 7 0 3 4 -9 9 -13
5 -23 16 -23 24 0 18 -47 56 -70 56 -9 0 -27 11 -40 25 -20 22 -21 27 -10 54
7 17 10 37 6 46 -3 8 5 25 19 39 14 14 25 30 25 36 0 6 12 -2 26 -19 14 -17
34 -31 43 -31 9 0 26 -7 37 -15 10 -8 36 -15 56 -15 26 0 42 -7 55 -22 14 -18
27 -23 63 -21 26 1 55 -5 70 -14 l25 -16 -19 21 c-15 17 -30 22 -68 22 -35 0
-54 6 -68 20 -11 11 -33 20 -49 20 -16 0 -49 9 -75 20 -43 20 -56 33 -38 43 4
2 1 2 -6 0 -24 -6 -51 38 -45 74 4 23 0 39 -16 59 -14 18 -21 41 -21 71 0 24
-4 52 -9 61 -5 9 -11 44 -14 77 -3 33 -3 54 0 47 2 -6 9 -10 14 -6 5 3 9 0 9
-7 0 -10 3 -10 12 -1 7 7 17 12 23 12 5 0 2 -5 -7 -11 -10 -5 -18 -18 -19 -27
0 -14 -2 -13 -9 3 -5 11 -9 15 -9 9 -1 -7 6 -27 14 -45 l14 -34 2 40 c1 38 2
38 8 10 l7 -30 7 28 c4 15 11 27 16 27 5 0 6 -10 3 -22 -5 -22 -5 -22 12 -5
10 10 21 16 23 13 3 -3 -2 -12 -10 -21 -9 -8 -14 -22 -11 -30 3 -8 -8 -37 -25
-65 -17 -28 -31 -56 -31 -63 0 -9 2 -9 9 1 4 7 22 15 39 17 29 4 31 2 37 -36
4 -21 10 -39 15 -39 10 0 20 25 20 50 0 13 7 18 20 17 11 -1 20 -5 20 -10 0
-13 63 -67 78 -67 7 0 10 -6 7 -12 -4 -7 1 -4 9 6 13 16 19 17 28 8 9 -9 8
-15 -8 -28 -18 -14 -18 -15 4 -4 19 9 27 8 41 -4 21 -19 35 -21 25 -3 -6 10
-4 10 7 0 25 -24 32 -13 9 15 -13 15 -2 6 24 -20 43 -44 77 -64 60 -36 -4 7
-3 8 5 4 6 -4 9 -11 6 -16 -3 -4 2 -11 11 -14 22 -8 26 -8 19 4 -11 17 13 11
32 -9 10 -10 32 -26 48 -36 28 -18 28 -16 -8 22 -42 44 -36 66 10 36 l28 -17
-18 21 c-18 21 -18 21 6 19 14 0 23 -4 21 -8 -2 -4 0 -9 6 -13 5 -3 10 0 10 7
0 7 12 -2 26 -19 29 -37 51 -45 33 -12 -12 24 -1 20 35 -10 19 -16 19 -15 0
14 l-18 30 20 -17 c24 -21 41 -24 25 -5 -6 8 -8 17 -4 20 3 4 -1 7 -9 7 -9 0
-18 6 -21 14 -5 11 -1 11 24 -1 16 -8 29 -19 29 -25 0 -5 6 -8 13 -5 6 2 23
-5 36 -17 l23 -21 -7 25 c-7 22 -6 23 8 12 8 -7 29 -17 46 -22 24 -7 31 -6 31
6 0 8 -3 13 -7 13 -24 -4 -34 4 -13 10 20 6 14 9 -32 15 -31 4 -62 14 -69 22
-11 13 -8 14 17 8 28 -6 28 -6 9 10 -19 17 -19 17 10 12 l30 -6 -25 15 c-14 8
-32 14 -41 15 -9 0 -29 12 -44 26 -15 14 -46 29 -69 34 -22 4 -35 8 -28 9 7 1
11 5 8 10 -3 4 -16 6 -28 4 -13 -2 -41 3 -63 11 -29 11 -34 15 -17 15 12 1 25
1 29 0 3 0 10 6 15 14 5 10 16 13 30 9 14 -3 19 -2 14 6 -4 7 -2 12 3 12 6 0
16 -9 23 -20 17 -27 32 -25 17 3 -12 22 -12 22 10 3 16 -14 21 -16 21 -5 1 8
8 2 16 -13 15 -30 30 -38 20 -13 -3 8 -1 15 3 15 5 0 11 -6 14 -12 2 -7 8 -10
12 -5 5 4 3 13 -3 19 -7 7 -12 16 -12 21 0 5 12 -5 26 -22 14 -17 31 -31 36
-31 6 0 3 9 -7 20 -10 11 -15 23 -12 26 4 4 9 -1 13 -10 3 -9 12 -16 20 -16 8
0 14 -4 14 -8 0 -4 13 -13 30 -19 38 -14 39 -1 3 25 -16 11 -25 24 -21 28 5 4
17 -1 28 -11 21 -19 28 -7 8 13 -10 10 -10 15 0 21 10 6 9 10 -7 14 -12 3 -21
1 -21 -4 0 -5 -10 -4 -22 2 -21 12 -22 12 -3 19 14 5 7 10 -33 23 -28 9 -63
17 -77 17 -15 0 -24 4 -20 10 3 6 -1 10 -9 10 -9 0 -16 5 -16 11 0 6 7 9 15 5
19 -7 19 8 0 24 -8 6 -20 8 -26 4 -7 -4 -9 -3 -6 3 4 6 23 11 42 10 21 -1 30
-4 22 -9 -9 -6 -9 -8 1 -8 7 0 17 11 22 24 13 35 45 42 72 17 27 -26 47 -28
25 -3 -10 10 -17 24 -17 30 0 17 33 20 53 4 16 -14 17 -6 17 146 l0 162 -2820
0 c-1875 0 -2820 -3 -2820 -10z m290 -10 c0 -5 -5 -10 -11 -10 -5 0 -7 5 -4
10 3 6 8 10 11 10 2 0 4 -4 4 -10z m3715 -90 c3 -5 1 -10 -4 -10 -6 0 -11 5
-11 10 0 6 2 10 4 10 3 0 8 -4 11 -10z m-1995 -64 c0 -2 -7 -7 -16 -10 -8 -3
-12 -2 -9 4 6 10 25 14 25 6z m175 -6 c-3 -5 -12 -10 -18 -10 -7 0 -6 4 3 10
19 12 23 12 15 0z m-121 -16 c3 -8 2 -12 -4 -9 -6 3 -10 10 -10 16 0 14 7 11
14 -7z m1401 -12 c-3 -3 -11 0 -18 7 -9 10 -8 11 6 5 10 -3 15 -9 12 -12z
m-1988 -9 c-14 -14 -19 -15 -29 -4 -7 8 -8 11 -3 8 6 -3 17 -2 25 4 23 14 26
11 7 -8z m493 8 c0 -5 -10 -11 -22 -14 -22 -6 -22 -6 -4 8 23 17 26 18 26 6z
m570 -1 c-8 -5 -19 -10 -25 -10 -5 0 -3 5 5 10 8 5 20 10 25 10 6 0 3 -5 -5
-10z m844 -6 c3 -8 2 -12 -4 -9 -6 3 -10 10 -10 16 0 14 7 11 14 -7z m-2354
-4 c0 -5 -2 -10 -4 -10 -3 0 -8 5 -11 10 -3 6 -1 10 4 10 6 0 11 -4 11 -10z
m825 -8 c-3 -3 -11 0 -18 7 -9 10 -8 11 6 5 10 -3 15 -9 12 -12z m343 3 c3 -3
-4 -4 -16 -2 -12 2 -24 6 -28 10 -4 3 4 4 16 2 12 -2 25 -7 28 -10z m56 -1 c3
-8 2 -12 -4 -9 -6 3 -10 10 -10 16 0 14 7 11 14 -7z m27 -7 c-10 -9 -11 -8 -5
6 3 10 9 15 12 12 3 -3 0 -11 -7 -18z m980 -2 c5 4 6 0 3 -8 -7 -20 50 -49 65
-34 7 7 11 7 11 1 0 -6 -11 -21 -25 -34 -24 -22 -26 -23 -42 -7 -16 16 -16 17
5 17 14 0 21 4 17 11 -4 6 -14 8 -22 5 -8 -3 -11 -1 -8 4 4 6 -4 9 -17 7 -19
-2 -23 3 -26 32 -3 32 -2 33 13 17 9 -9 21 -14 26 -11z m-2596 5 c-9 -14 8
-13 23 2 6 6 14 9 17 7 2 -3 -9 -15 -25 -28 -17 -12 -30 -17 -30 -11 0 5 -6
10 -14 10 -8 0 -18 5 -22 11 -4 7 0 9 14 5 11 -4 23 -2 27 4 3 5 8 10 11 10 3
0 2 -4 -1 -10z m605 1 c0 -5 -7 -12 -16 -15 -14 -5 -15 -4 -4 9 14 17 20 19
20 6z m2163 2 c-7 -2 -19 -2 -25 0 -7 3 -2 5 12 5 14 0 19 -2 13 -5z m57 -3
c-8 -5 -19 -10 -25 -10 -5 0 -3 5 5 10 8 5 20 10 25 10 6 0 3 -5 -5 -10z
m1975 0 c-3 -5 -11 -10 -16 -10 -6 0 -7 5 -4 10 3 6 11 10 16 10 6 0 7 -4 4
-10z m-2114 -23 c-10 -9 -11 -8 -5 6 3 10 9 15 12 12 3 -3 0 -11 -7 -18z
m-1232 -4 c-12 -15 -12 -16 5 -10 26 10 205 14 199 5 -2 -5 11 -9 29 -9 l33
-2 -32 -6 c-24 -4 -30 -10 -24 -20 6 -9 17 -11 32 -6 17 5 21 4 14 -3 -5 -6
-31 -12 -57 -14 -25 -2 -46 -7 -45 -13 1 -5 -11 -11 -28 -13 -46 -4 -78 -12
-72 -19 10 -9 -15 -27 -56 -41 -35 -13 -40 -12 -57 5 -27 28 -62 55 -74 58 -6
1 -19 6 -29 10 -15 6 -16 10 -5 16 7 5 13 12 14 16 2 21 17 42 26 37 5 -3 4
-13 -4 -22 -12 -16 -11 -16 7 0 11 9 36 19 55 22 19 3 36 10 38 15 2 6 13 11
24 11 18 0 19 -2 7 -17z m1196 7 c-3 -5 -12 -10 -18 -10 -7 0 -6 4 3 10 19 12
23 12 15 0z m-1780 -7 c-16 -2 -52 -11 -78 -20 -27 -8 -51 -13 -53 -10 -9 9
81 34 121 34 31 0 33 -1 10 -4z m1871 -2 c7 6 19 9 26 6 8 -4 7 -6 -4 -6 -10
-1 -18 -6 -18 -12 0 -6 -7 -9 -15 -6 -8 4 -17 1 -21 -5 -5 -7 -2 -8 6 -3 10 6
12 4 7 -8 -9 -24 6 -21 21 3 7 12 18 18 25 13 6 -4 26 -6 44 -4 22 2 38 -4 53
-19 24 -24 40 -20 20 5 -7 9 -10 18 -8 21 3 3 15 -7 27 -22 l21 -27 -4 29 c-2
16 -1 23 1 17 6 -17 42 -16 73 2 30 17 40 18 40 4 0 -5 -4 -8 -9 -5 -4 3 -16
-3 -25 -13 -11 -12 -25 -16 -41 -13 -14 2 -25 0 -25 -5 0 -5 16 -8 35 -7 20 2
33 -1 30 -6 -3 -4 0 -10 5 -12 6 -2 12 -13 13 -26 2 -26 14 -29 20 -4 4 13 5
12 6 -5 1 -20 -2 -21 -55 -16 -47 5 -58 3 -66 -11 -9 -16 -12 -16 -34 -1 -14
9 -24 11 -24 5 0 -6 -4 -9 -9 -5 -5 3 -12 1 -16 -5 -3 -5 -19 -10 -35 -10 -16
0 -32 -4 -35 -10 -3 -5 0 -10 8 -10 7 0 14 -7 14 -15 0 -10 -10 -15 -29 -15
-15 0 -28 -4 -28 -10 0 -5 -14 -10 -31 -10 -23 0 -30 4 -26 14 4 9 1 13 -6 11
-11 -4 -47 54 -47 76 0 5 9 20 21 32 12 12 33 40 47 62 14 23 27 34 30 27 3
-10 7 -10 18 -1z m599 -1 c3 -6 -1 -7 -9 -4 -18 7 -21 14 -7 14 6 0 13 -4 16
-10z m-3225 -4 c0 -2 -8 -10 -17 -17 -16 -13 -17 -12 -4 4 13 16 21 21 21 13z
m1190 0 c0 -2 -8 -10 -17 -17 -16 -13 -17 -12 -4 4 13 16 21 21 21 13z m3436
-15 c-15 -16 -22 -18 -36 -8 -25 15 -15 27 22 27 30 0 31 -1 14 -19z m-790 -9
c-10 -2 -22 0 -28 6 -6 6 0 7 19 4 21 -5 23 -7 9 -10z m-176 -39 c14 -24 16
-32 6 -24 -17 14 -50 75 -36 66 4 -3 18 -22 30 -42z m-638 4 c7 5 22 13 33 17
35 12 3 -12 -37 -29 l-38 -15 0 27 c1 27 1 27 15 9 10 -13 18 -16 27 -9z m158
-7 c0 -5 -5 -10 -11 -10 -5 0 -7 5 -4 10 3 6 8 10 11 10 2 0 4 -4 4 -10z
m1424 1 c3 -5 -6 -8 -20 -8 -19 0 -22 2 -13 8 18 11 26 11 33 0z m73 3 c-3 -3
-12 -4 -19 -1 -8 3 -5 6 6 6 11 1 17 -2 13 -5z m-3981 -13 c-3 -5 -16 -11 -28
-14 -22 -6 -22 -5 -4 8 22 17 40 20 32 6z m2564 -16 c5 -14 24 -34 42 -45 21
-12 27 -20 16 -20 -9 0 -23 6 -30 13 -7 8 -19 12 -27 9 -8 -3 -11 0 -7 7 4 6
4 11 -1 11 -4 0 -8 11 -8 25 0 31 3 31 15 0z m395 -5 c10 -11 16 -20 13 -20
-3 0 -13 9 -23 20 -10 11 -16 20 -13 20 3 0 13 -9 23 -20z m-545 5 c0 -9 -101
-34 -115 -29 -27 11 -3 26 30 20 19 -4 36 -2 40 4 6 10 45 15 45 5z m72 -7 c6
6 23 11 38 11 20 -1 21 -2 5 -6 -11 -3 -24 -8 -30 -13 -23 -17 -44 -18 -57 -2
-9 11 -10 14 0 8 7 -4 12 -2 12 6 0 9 3 9 10 -2 7 -12 12 -12 22 -2z m358 -21
c0 6 11 8 28 5 l27 -6 -30 -6 c-16 -4 -36 -2 -42 3 -9 7 -13 5 -13 -6 0 -16
29 -27 77 -27 45 0 63 -9 63 -32 0 -11 4 -16 11 -13 6 4 8 13 5 21 -5 13 -1
15 22 13 4 0 6 -7 4 -16 -3 -12 3 -14 27 -8 20 4 31 3 31 -4 0 -18 38 -12 43
7 3 9 5 3 6 -14 0 -17 4 -34 8 -38 9 -9 32 -95 33 -122 0 -15 -10 -26 -30 -34
-32 -13 -48 -6 -90 44 -16 19 -43 22 -108 14 -50 -6 -70 22 -74 106 -2 46 -8
70 -16 72 -7 1 -8 0 -2 -3 5 -2 10 -8 10 -13 0 -18 -50 17 -59 42 -9 24 -8 26
15 22 15 -3 24 0 24 8 1 8 7 5 15 -6 8 -11 15 -15 15 -9z m95 -6 c-3 -6 -14
-10 -23 -10 -15 1 -15 2 1 6 9 2 17 9 17 15 0 6 3 9 6 5 3 -3 3 -10 -1 -16z
m383 -12 c-3 -8 -7 -3 -11 10 -4 17 -3 21 5 13 5 -5 8 -16 6 -23z m-304 13 c2
-4 -4 -8 -14 -8 -10 0 -16 4 -14 8 3 4 9 8 14 8 5 0 11 -4 14 -8z m-49 -12 c3
-5 1 -10 -4 -10 -6 0 -11 5 -11 10 0 6 2 10 4 10 3 0 8 -4 11 -10z m65 -20 c0
-5 -4 -10 -9 -10 -6 0 -13 5 -16 10 -3 6 1 10 9 10 9 0 16 -4 16 -10z m40 -25
c7 -8 8 -15 2 -15 -5 0 -15 7 -22 15 -7 8 -8 15 -2 15 5 0 15 -7 22 -15z
m-2410 -25 c0 -5 -5 -10 -11 -10 -5 0 -7 5 -4 10 3 6 8 10 11 10 2 0 4 -4 4
-10z m170 -15 c-7 -9 -15 -13 -19 -10 -3 3 1 10 9 15 21 14 24 12 10 -5z m50
1 c0 -8 -7 -16 -15 -20 -12 -4 -13 -2 -2 14 14 24 17 25 17 6z m-677 -16 c-3
-11 -9 -20 -15 -20 -5 0 -4 9 2 20 6 11 12 20 14 20 2 0 2 -9 -1 -20z m48 -7
c-12 -20 -14 -14 -5 12 4 9 9 14 11 11 3 -2 0 -13 -6 -23z m423 -14 c-3 -5
-10 -7 -15 -3 -5 3 -7 10 -3 15 3 5 10 7 15 3 5 -3 7 -10 3 -15z m3114 9 c10
-10 15 -10 22 2 6 9 10 10 10 3 0 -7 -10 -17 -21 -24 -13 -7 -19 -7 -15 -1 4
6 -2 15 -11 21 -10 6 -13 11 -7 11 5 0 16 -6 22 -12z m172 2 c0 -5 -2 -10 -4
-10 -3 0 -8 5 -11 10 -3 6 -1 10 4 10 6 0 11 -4 11 -10z m-2706 -24 c-6 -16
-24 -23 -24 -8 0 10 22 33 27 28 2 -2 1 -11 -3 -20z m1312 -9 c8 -4 14 -13 14
-19 0 -6 -11 -1 -25 12 -13 12 -21 28 -18 33 4 7 8 6 11 -3 3 -8 11 -19 18
-23z m-516 3 c0 -12 -42 -51 -48 -45 -5 5 37 55 45 55 2 0 3 -4 3 -10z m-59
-18 c-5 -10 -17 -24 -25 -31 -12 -10 -14 -9 -12 5 1 9 11 23 21 30 25 18 28
18 16 -4z m398 -26 c-3 -3 -11 5 -18 17 -13 21 -12 21 5 5 10 -10 16 -20 13
-22z m-2657 2 c-9 -9 -15 -9 -24 1 -11 10 -10 11 5 6 10 -5 17 -2 17 6 0 7 3
9 7 6 4 -4 1 -13 -5 -19z m2891 10 c4 -10 8 -9 16 2 9 12 11 10 11 -12 0 -35
-10 -35 -40 -3 -18 20 -20 25 -8 25 9 0 19 -6 21 -12z m121 -24 c3 -8 2 -12
-4 -9 -6 3 -10 10 -10 16 0 14 7 11 14 -7z m-2434 2 c0 -3 -4 -8 -10 -11 -5
-3 -10 -1 -10 4 0 6 5 11 10 11 6 0 10 -2 10 -4z m1625 -6 c-3 -5 -14 -10 -23
-10 -15 0 -15 2 -2 10 20 13 33 13 25 0z m-2495 -4 c0 -3 -4 -8 -10 -11 -5 -3
-10 -1 -10 4 0 6 5 11 10 11 6 0 10 -2 10 -4z m-236 -15 c8 -13 -13 -18 -43
-13 -23 5 -24 6 -6 13 28 11 43 11 49 0z m2947 -22 c-9 -22 -10 -22 -10 -3 -1
11 2 24 6 27 12 12 14 0 4 -24z m1619 3 c-7 -3 -16 0 -18 6 -2 6 -11 8 -20 5
-14 -4 -14 -3 -3 5 10 7 21 7 35 0 16 -9 18 -12 6 -16z m-1648 -14 c-7 -7 -12
-8 -12 -2 0 6 3 14 7 17 3 4 9 5 12 2 2 -3 -1 -11 -7 -17z m-3016 -19 c-15
-12 -23 -26 -19 -32 5 -8 2 -8 -9 0 -8 7 -18 10 -21 6 -4 -3 -7 -2 -7 4 0 9
55 41 74 42 5 1 -3 -8 -18 -20z m2974 1 c-6 -11 -15 -20 -20 -20 -16 0 -11 18
8 29 24 14 24 14 12 -9z m514 -16 c3 -8 2 -12 -4 -9 -6 3 -10 10 -10 16 0 14
7 11 14 -7z m31 -4 c3 -5 1 -10 -4 -10 -6 0 -11 5 -11 10 0 6 2 10 4 10 3 0 8
-4 11 -10z m-835 -10 c0 -5 -2 -10 -4 -10 -3 0 -8 5 -11 10 -3 6 -1 10 4 10 6
0 11 -4 11 -10z m2079 -23 c11 -17 11 -17 -16 -1 -15 10 -30 19 -32 20 -2 2 6
2 17 1 11 0 25 -9 31 -20z m70 -11 c-3 -3 -11 5 -18 17 -13 21 -12 21 5 5 10
-10 16 -20 13 -22z m-29 -16 c0 -5 -2 -10 -4 -10 -3 0 -8 5 -11 10 -3 6 -1 10
4 10 6 0 11 -4 11 -10z m-2311 -44 c-15 -13 -49 -25 -49 -17 0 5 8 12 18 14
24 6 36 8 31 3z m1269 -16 c-12 -19 -38 -35 -38 -24 0 5 41 43 48 44 1 0 -3
-9 -10 -20z m-93 -60 c-3 -5 -11 -10 -16 -10 -6 0 -7 5 -4 10 3 6 11 10 16 10
6 0 7 -4 4 -10z m-40 -30 c-3 -5 -12 -10 -18 -10 -7 0 -6 4 3 10 19 12 23 12
15 0z m20 -50 c-3 -5 -12 -10 -20 -10 -8 0 -18 -7 -23 -16 -8 -15 -10 -15 -15
0 -4 9 1 20 11 25 22 13 55 14 47 1z m1248 -73 c-3 -5 4 -6 16 -2 23 7 51 -9
51 -28 0 -7 -4 -7 -12 1 -13 13 -38 -1 -38 -22 0 -6 5 -4 10 4 7 12 10 12 10
1 0 -8 6 -11 16 -7 14 6 15 4 4 -9 -11 -13 -15 -13 -21 -3 -6 9 -9 7 -9 -7 0
-11 -11 2 -25 33 -26 56 -39 68 -29 26 6 -25 5 -26 -17 -14 -22 10 -22 9 3
-14 16 -14 23 -28 18 -31 -6 -3 -10 -2 -10 3 0 5 -9 12 -20 15 -29 8 -37 37
-14 53 10 7 24 17 29 22 12 11 46 -8 38 -21z m-1243 -1 c0 -3 -4 -8 -10 -11
-5 -3 -10 -1 -10 4 0 6 5 11 10 11 6 0 10 -2 10 -4z m-110 -10 c0 -2 -12 -12
-27 -21 l-28 -18 19 21 c17 20 36 29 36 18z m110 -31 c-7 -9 -15 -13 -18 -10
-3 2 1 11 8 20 7 9 15 13 18 10 3 -2 -1 -11 -8 -20z m1143 2 c12 -19 13 -24 2
-24 -8 0 -12 4 -9 8 2 4 -3 15 -12 23 -8 9 -11 16 -6 16 5 0 17 -10 25 -23z
m-4169 -19 c5 -15 7 -31 3 -34 -10 -10 -39 17 -33 31 2 7 -1 18 -7 25 -9 9 -8
11 8 8 11 -2 24 -15 29 -30z m282 15 c-3 -4 -12 -8 -19 -9 -7 -1 -30 -13 -51
-28 -25 -17 -47 -24 -64 -21 -35 6 -35 9 -2 29 18 10 30 13 30 6 0 -8 6 -8 20
0 11 6 20 7 20 3 0 -4 5 0 11 10 5 9 22 17 36 17 15 0 23 -3 19 -7z m2658 -9
c3 -8 2 -13 -3 -10 -4 3 -23 -8 -41 -24 -19 -17 -35 -28 -37 -26 -4 3 66 76
72 76 2 0 6 -7 9 -16z m-2982 -72 c-41 -4 -63 3 -60 19 2 6 -4 14 -12 16 -13
4 -13 3 0 -6 8 -6 10 -11 5 -11 -6 0 -16 5 -23 12 -9 9 -7 14 5 23 14 10 26 7
67 -19 l51 -31 -33 -3z m5 41 c-8 -7 -37 9 -31 19 3 5 12 4 20 -3 8 -6 13 -14
11 -16z m2828 -13 c-3 -5 -11 -10 -16 -10 -6 0 -7 5 -4 10 3 6 11 10 16 10 6
0 7 -4 4 -10z m1401 -30 c0 -12 -4 -16 -9 -11 -5 5 -6 14 -3 20 10 15 12 14
12 -9z m-1456 0 c0 -5 -7 -10 -16 -10 -8 0 -12 5 -9 10 3 6 10 10 16 10 5 0 9
-4 9 -10z m70 -10 c0 -5 -4 -10 -10 -10 -5 0 -10 5 -10 10 0 6 5 10 10 10 6 0
10 -4 10 -10z m1524 -21 c-2 -4 0 -10 6 -14 5 -3 10 -21 9 -38 l0 -32 -15 40
c-7 22 -18 48 -24 58 -9 15 -8 16 9 5 11 -7 18 -15 15 -19z m76 -5 c0 -14 -4
-23 -9 -20 -5 3 -7 15 -4 26 7 28 13 25 13 -6z m-127 -49 c5 -31 -1 -32 -14
-2 -9 20 -9 20 -6 -6 6 -37 -5 -25 -19 23 l-12 39 23 -15 c13 -8 25 -26 28
-39z m-122 13 c8 -17 19 -33 25 -35 16 -5 37 14 29 27 -6 10 -11 9 -20 -4 -11
-15 -13 -15 -19 -1 -3 9 0 22 7 29 10 11 15 10 30 -7 10 -12 15 -28 11 -39 -3
-10 0 -18 6 -18 6 0 10 -5 8 -11 -2 -6 -6 -9 -9 -7 -3 2 -14 -4 -24 -12 -17
-14 -18 -13 -12 2 4 11 2 15 -6 12 -7 -2 -21 14 -32 38 -11 24 -21 46 -23 51
-2 4 0 7 5 7 4 0 15 -15 24 -32z m152 2 c3 -11 2 -18 -3 -15 -4 3 -10 14 -13
25 -3 11 -2 18 3 15 4 -3 10 -14 13 -25z m-1723 0 c0 -5 -7 -10 -16 -10 -8 0
-12 5 -9 10 3 6 10 10 16 10 5 0 9 -4 9 -10z m-2267 -21 c-11 -12 -26 -18 -32
-15 -16 10 -14 29 2 23 8 -3 20 -1 28 4 24 15 25 10 2 -12z m4067 11 c0 -5 -4
-10 -10 -10 -5 0 -10 5 -10 10 0 6 5 10 10 10 6 0 10 -4 10 -10z m-4006 -35
c-7 -18 37 -37 75 -33 18 2 26 -2 26 -12 0 -9 -7 -14 -20 -12 -16 3 -18 1 -7
-9 19 -20 15 -24 -28 -25 -44 -2 -48 2 -22 22 16 12 15 13 -5 14 -17 0 -23 -6
-23 -22 -1 -41 -31 -66 -98 -82 -35 -8 -70 -12 -78 -9 -9 3 -14 -2 -14 -15 0
-23 -15 -36 -29 -28 -12 8 7 97 25 117 8 8 14 21 14 28 0 21 49 32 108 22 31
-5 61 -6 66 -4 15 10 -38 33 -59 26 -18 -5 -18 -4 -6 11 9 11 24 16 38 13 13
-2 26 0 29 4 9 14 14 10 8 -6z m3996 -5 c-6 -11 -12 -20 -14 -20 -2 0 -2 9 1
20 3 11 9 20 15 20 5 0 4 -9 -2 -20z m-2161 -70 l33 -45 -41 45 c-22 25 -41
49 -41 55 0 11 6 4 49 -55z m1300 27 c0 -9 -2 -8 -6 1 -2 6 -10 9 -15 6 -7 -4
-8 -2 -4 5 9 13 26 5 25 -12z m-4049 -29 c0 -11 -51 1 -65 15 -7 7 -6 8 3 3 6
-4 12 -3 12 3 0 7 8 7 25 -1 14 -6 25 -15 25 -20z m1060 16 c0 -14 1 -14 16 0
23 23 40 19 19 -4 -10 -11 -31 -20 -47 -20 -30 0 -35 9 -16 28 17 17 28 15 28
-4z m-891 -36 c1 -5 -3 -8 -8 -8 -12 0 -22 30 -14 43 6 10 20 -13 22 -35z m55
21 c-8 -13 10 -11 24 3 9 9 12 9 12 0 0 -11 -26 -26 -55 -32 -5 -1 -12 7 -16
17 -5 14 -1 18 17 19 13 1 21 -2 18 -7z m-95 -9 c12 0 9 -34 -3 -42 -15 -10
-36 11 -36 34 0 14 5 18 16 14 9 -3 19 -6 23 -6z m2507 -70 l38 -45 -38 35
c-21 19 -42 44 -48 55 -12 23 -5 17 48 -45z m1014 45 c-7 -9 -15 -13 -17 -11
-7 7 7 26 19 26 6 0 6 -6 -2 -15z m-3470 -20 c-7 -8 -20 -15 -29 -15 -13 1
-13 3 3 15 26 19 42 19 26 0z m784 -4 c11 -12 36 -20 72 -24 41 -4 59 -11 73
-29 25 -30 19 -35 -15 -14 -14 10 -28 15 -31 13 -15 -15 83 -56 182 -76 22 -5
34 -9 26 -10 -8 0 -12 -4 -8 -7 3 -3 11 -3 18 2 9 5 7 11 -6 20 -16 12 -17 14
-2 20 10 3 24 3 33 0 8 -3 27 2 42 11 l27 17 -19 -22 c-10 -12 -27 -24 -37
-27 -25 -8 -25 -45 -1 -45 28 0 34 11 14 26 -15 12 -14 13 11 14 20 0 27 -5
27 -20 0 -12 7 -20 18 -20 13 0 14 2 3 9 -17 11 -5 17 34 16 17 0 32 2 35 5 3
3 37 3 75 0 l70 -5 -135 -54 c-74 -29 -182 -74 -240 -99 -109 -47 -239 -98
-398 -157 -110 -41 -430 -135 -460 -135 -11 0 -42 16 -68 36 -50 39 -46 38
-116 9 -31 -12 -20 14 12 30 17 9 30 20 30 25 0 6 7 10 16 10 18 0 114 92 114
109 0 14 49 3 71 -15 8 -8 31 -16 50 -19 l34 -5 -33 12 c-21 7 -31 16 -28 25
4 9 -4 13 -27 13 -31 0 -57 14 -57 31 0 6 17 3 80 -12 8 -2 18 -8 22 -14 5 -6
8 -3 8 6 0 9 7 19 15 23 22 8 19 -30 -2 -43 -10 -6 -13 -11 -6 -11 20 0 43 12
38 20 -3 5 0 12 6 16 7 4 9 3 5 -4 -3 -5 0 -12 6 -15 9 -3 7 -10 -7 -21 -11
-8 -15 -16 -8 -16 6 0 18 6 25 13 7 6 33 12 58 12 25 -1 51 1 58 3 18 6 14 23
-5 20 -10 -2 -22 8 -30 24 -9 17 -25 29 -45 33 -26 6 -28 9 -15 17 9 5 17 14
17 19 0 6 -5 7 -11 3 -6 -3 -15 -1 -19 6 -4 7 -32 12 -69 13 -37 0 -58 4 -53
9 5 5 25 9 43 9 19 0 53 5 76 11 30 7 51 7 76 -1 25 -8 42 -9 62 -1 22 8 30 8
36 -2 5 -9 23 -13 48 -11 24 1 40 -2 38 -9 -2 -10 77 -18 101 -10 17 6 15 22
-4 22 -8 0 -13 4 -9 9 3 5 0 13 -6 16 -5 4 -8 13 -5 20 3 8 -5 16 -20 19 -13
4 -24 14 -24 23 0 9 -3 14 -6 10 -4 -3 -19 0 -35 8 -15 8 -39 15 -54 15 -14 0
-25 3 -25 8 0 16 18 34 28 28 6 -3 13 -2 17 4 3 5 19 10 34 10 50 0 93 12 98
29 8 21 24 41 33 41 4 0 14 -8 24 -19z m1536 -9 c0 -15 -2 -15 -10 -2 -13 20
-13 33 0 25 6 -3 10 -14 10 -23z m-2367 -29 c-4 -10 -14 -28 -24 -41 l-18 -23
-12 23 c-8 15 -14 18 -17 10 -2 -7 3 -21 12 -31 17 -19 12 -51 -8 -51 -7 0
-21 7 -32 15 -18 14 -18 16 -2 28 10 8 15 17 11 20 -3 4 -12 2 -20 -4 -10 -9
-13 -7 -13 11 0 15 4 20 15 16 8 -3 18 1 22 8 11 18 44 35 70 36 17 0 21 -4
16 -17z m2369 -29 c3 -29 2 -33 -7 -20 -7 9 -16 12 -21 8 -4 -4 -2 1 5 10 7 9
10 22 6 28 -3 5 -2 10 3 10 6 0 12 -16 14 -36z m-457 16 c-3 -5 -11 -10 -16
-10 -6 0 -7 5 -4 10 3 6 11 10 16 10 6 0 7 -4 4 -10z m-835 -21 c-21 -17 -22
-20 -5 -16 62 15 75 17 75 10 0 -5 -12 -16 -26 -26 -23 -17 -27 -17 -49 -3
-13 9 -31 16 -40 16 -8 0 -15 6 -15 14 0 10 10 14 30 14 17 -1 33 2 37 5 3 4
9 7 12 7 3 0 -5 -10 -19 -21z m100 5 c0 -8 -5 -12 -10 -9 -6 4 -8 11 -5 16 9
14 15 11 15 -7z m23 -9 c-3 -9 -8 -14 -10 -11 -3 3 -2 9 2 15 9 16 15 13 8 -4z
m-1469 -1 c17 -7 22 -34 6 -34 -5 0 -10 5 -10 11 0 6 -7 9 -15 6 -8 -4 -17 -1
-21 5 -4 7 -3 8 4 4 7 -4 12 -2 12 3 0 13 3 13 24 5z m4528 -2 c3 8 10 4 18
-12 12 -22 11 -24 -2 -13 -8 7 -17 11 -20 8 -3 -3 -11 3 -19 12 -13 16 -12 17
3 5 13 -10 17 -10 20 0z m-2983 -19 c-13 -15 -10 -16 26 -10 l40 6 -30 -14
c-58 -27 -112 -10 -58 18 37 20 38 20 22 0z m794 2 c-3 -9 -8 -14 -10 -11 -3
3 -2 9 2 15 9 16 15 13 8 -4z m-2205 -18 c2 -10 -3 -17 -11 -17 -18 0 -39 24
-30 34 12 12 38 2 41 -17z m4487 -25 c-8 -8 -25 10 -25 26 0 13 2 13 14 -4 8
-10 13 -21 11 -22z m-2601 3 c-4 -8 -11 -15 -16 -15 -6 0 -5 6 2 15 7 8 14 15
16 15 2 0 1 -7 -2 -15z m2191 -53 c-3 -3 -11 0 -18 7 -9 10 -8 11 6 5 10 -3
15 -9 12 -12z m-50 -10 c-3 -3 -11 0 -18 7 -9 10 -8 11 6 5 10 -3 15 -9 12
-12z m-2385 -7 c-7 -8 -17 -15 -23 -15 -6 0 -2 7 9 15 25 19 30 19 14 0z
m1950 -15 c0 -5 -2 -10 -4 -10 -3 0 -8 5 -11 10 -3 6 -1 10 4 10 6 0 11 -4 11
-10z m60 -60 c0 -5 -4 -10 -10 -10 -5 0 -10 5 -10 10 0 6 5 10 10 10 6 0 10
-4 10 -10z m51 -27 c13 -16 12 -17 -3 -4 -17 13 -22 21 -14 21 2 0 10 -8 17
-17z m-34 -9 c-3 -3 -12 -4 -19 -1 -8 3 -5 6 6 6 11 1 17 -2 13 -5z m64 -35
c-13 -11 -30 -18 -37 -15 -7 3 -14 0 -16 -6 -2 -6 -22 -13 -44 -14 -52 -4 -84
-14 -84 -27 0 -6 -3 -7 -7 -4 -3 4 -12 2 -20 -4 -10 -9 -11 -15 -1 -26 10 -12
7 -13 -17 -7 -20 5 -26 4 -21 -5 4 -6 0 -11 -10 -11 -15 0 -14 -3 5 -24 20
-22 21 -24 4 -23 -10 1 -17 -4 -16 -10 2 -7 -1 -12 -6 -10 -5 1 -8 -2 -8 -8 1
-5 8 -9 17 -7 12 2 12 1 1 -6 -19 -13 -51 -3 -44 14 3 8 -1 14 -8 14 -9 1 -8
4 4 11 9 5 22 7 27 4 6 -3 10 1 10 10 0 11 -5 15 -15 11 -8 -3 -15 -3 -15 -1
0 5 50 55 55 55 10 0 52 49 47 54 -3 3 5 6 17 6 12 0 20 4 16 9 -3 5 -1 12 5
16 5 3 10 0 11 -7 0 -7 4 -4 9 7 9 19 9 19 16 -2 3 -13 11 -23 16 -23 6 0 8 7
4 15 -4 12 -2 13 13 5 14 -7 27 -6 48 5 15 8 34 15 41 15 6 0 12 5 12 12 0 6
3 8 8 4 4 -4 -4 -17 -17 -27z m52 -6 c-7 -2 -19 -2 -25 0 -7 3 -2 5 12 5 14 0
19 -2 13 -5z m46 -38 c0 -5 -6 -1 -14 9 -8 11 -15 14 -15 8 0 -7 -5 -12 -10
-12 -6 0 -5 8 2 19 11 18 13 18 25 3 7 -9 12 -21 12 -27z m-4004 16 c-3 -6 4
-15 16 -22 19 -10 21 -9 16 5 -6 14 -3 16 14 11 11 -4 26 -1 34 5 10 9 20 7
39 -5 36 -24 24 -35 -32 -31 -27 2 -55 -2 -67 -10 -18 -12 -92 -18 -80 -6 3 3
0 11 -6 19 -8 9 -8 13 -1 13 6 0 14 -4 17 -10 3 -5 17 -10 31 -10 15 0 23 4
19 11 -4 6 -13 8 -21 5 -18 -7 -18 -1 2 18 17 18 28 21 19 7z m3695 5 c0 -2
-7 -7 -16 -10 -8 -3 -12 -2 -9 4 6 10 25 14 25 6z m369 -12 c4 3 8 -1 8 -9 0
-8 -7 -15 -14 -15 -8 0 -11 5 -8 10 3 6 1 10 -5 10 -6 0 -8 5 -4 12 6 9 9 9
12 0 2 -7 7 -10 11 -8z m-3892 0 c-3 -3 -12 -4 -19 -1 -8 3 -5 6 6 6 11 1 17
-2 13 -5z m3953 -25 c0 -5 5 -7 11 -3 8 4 8 0 0 -15 -7 -11 -17 -21 -24 -21
-8 0 -7 4 3 11 11 8 12 12 3 16 -15 6 -17 23 -3 23 6 0 10 -5 10 -11z m-364
-20 c19 -22 19 -22 -3 -11 -16 9 -22 9 -25 0 -2 -6 -10 -8 -17 -4 -9 6 -8 11
6 22 10 7 18 14 19 14 0 0 9 -10 20 -21z m176 9 c-6 -6 -19 -12 -29 -13 -10 0
-24 -4 -31 -9 -6 -4 -12 -2 -12 3 0 6 3 11 8 12 22 2 45 8 50 13 3 3 10 6 16
6 6 0 6 -4 -2 -12z m43 2 c-3 -5 -11 -10 -16 -10 -6 0 -7 5 -4 10 3 6 11 10
16 10 6 0 7 -4 4 -10z m-148 -6 c-3 -3 -12 -4 -19 -1 -8 3 -5 6 6 6 11 1 17
-2 13 -5z m118 -24 c-3 -5 -12 -10 -18 -10 -7 0 -6 4 3 10 19 12 23 12 15 0z
m60 0 c-3 -5 -14 -10 -23 -9 -14 0 -13 2 3 9 27 11 27 11 20 0z m76 -7 c13
-15 12 -15 -9 -4 -12 6 -27 9 -32 6 -5 -3 -11 -1 -15 5 -11 17 42 11 56 -7z
m-690 -34 c12 -17 18 -19 42 -10 36 14 35 5 -3 -14 -19 -10 -30 -11 -30 -5 0
6 -5 8 -10 5 -6 -4 -7 -12 -4 -18 4 -7 4 -9 -1 -5 -4 4 -14 3 -22 -3 -8 -7
-13 -8 -13 -1 0 5 -9 8 -20 5 -11 -3 -20 0 -20 6 0 7 -8 8 -24 1 -13 -5 -27
-6 -31 -2 -3 3 -3 -2 1 -11 4 -10 13 -16 21 -13 8 3 11 1 8 -4 -9 -15 -38 -8
-53 13 -7 9 -21 17 -30 18 -10 0 -4 7 16 17 27 13 37 14 53 4 17 -11 23 -10
40 10 20 22 20 22 10 1 -13 -25 5 -45 20 -22 5 8 9 10 9 5 0 -12 30 14 30 26
0 5 -10 6 -21 3 -15 -5 -19 -4 -15 4 11 17 32 13 47 -10z m349 10 c0 6 5 11
11 11 8 0 8 -4 -1 -14 -6 -8 -18 -12 -26 -9 -8 3 -14 0 -14 -6 0 -17 -17 -13
-24 5 -4 12 -2 15 9 10 8 -3 15 0 15 6 0 7 5 6 15 -2 10 -9 15 -9 15 -1z m50
1 c0 -5 -5 -10 -11 -10 -5 0 -7 5 -4 10 3 6 8 10 11 10 2 0 4 -4 4 -10z m66
-5 c10 -8 14 -15 7 -15 -6 0 -15 5 -18 10 -4 6 -11 8 -16 5 -5 -4 -9 -1 -9 4
0 15 13 14 36 -4z m-336 -15 c0 -5 -6 -7 -14 -4 -11 4 -13 0 -9 -15 6 -22 23
-29 23 -10 0 8 5 8 15 -1 8 -7 12 -17 9 -22 -4 -6 -9 -6 -13 -1 -3 5 -16 8
-29 7 -17 -1 -22 3 -17 14 5 14 4 14 -12 0 -20 -17 -51 -35 -43 -25 33 43 58
66 73 66 9 1 17 -3 17 -9z m40 6 c0 -2 -7 -7 -16 -10 -8 -3 -12 -2 -9 4 6 10
25 14 25 6z m720 -27 c10 -19 10 -20 -9 -10 -25 14 -34 14 -26 1 3 -6 -1 -7
-9 -4 -23 9 -20 22 7 27 12 2 23 5 24 6 1 0 7 -8 13 -20z m-713 -31 c-3 -8 -6
-5 -6 6 -1 11 2 17 5 13 3 -3 4 -12 1 -19z m113 12 c0 -5 -2 -10 -4 -10 -3 0
-8 5 -11 10 -3 6 -1 10 4 10 6 0 11 -4 11 -10z m-470 -10 c0 -5 -6 -7 -14 -4
-7 3 -20 -2 -29 -10 -9 -9 -20 -16 -26 -16 -6 0 -11 -5 -11 -12 0 -6 -3 -8 -7
-4 -4 4 6 18 22 31 31 25 65 33 65 15z m553 3 c-7 -2 -19 -2 -25 0 -7 3 -2 5
12 5 14 0 19 -2 13 -5z m397 -7 c0 -8 -12 -17 -26 -20 -22 -6 -24 -9 -12 -23
12 -15 11 -15 -9 -2 -24 14 -17 31 14 35 10 2 19 8 21 13 5 15 12 14 12 -3z
m27 -8 c-3 -8 -6 -5 -6 6 -1 11 2 17 5 13 3 -3 4 -12 1 -19z m-1886 -11 c-10
-9 -11 -8 -5 6 3 10 9 15 12 12 3 -3 0 -11 -7 -18z m1119 13 c0 -5 -5 -10 -11
-10 -5 0 -7 5 -4 10 3 6 8 10 11 10 2 0 4 -4 4 -10z m795 -20 c3 -5 1 -10 -4
-10 -6 0 -11 5 -11 10 0 6 2 10 4 10 3 0 8 -4 11 -10z m-1015 -5 c0 -2 -9 -9
-20 -15 -12 -6 -20 -7 -20 -1 0 5 8 12 18 14 9 3 18 5 20 6 1 0 2 -1 2 -4z
m424 -4 c41 -1 25 -13 -18 -13 -23 0 -40 -6 -46 -16 -9 -15 -10 -14 -8 3 2 12
-2 19 -10 17 -8 -1 -11 2 -8 7 4 5 19 8 34 7 15 -2 40 -4 56 -5z m-484 -31
c-8 -5 -19 -10 -25 -10 -5 0 -3 5 5 10 8 5 20 10 25 10 6 0 3 -5 -5 -10z m870
-10 c-20 -13 -33 -13 -25 0 3 6 14 10 23 10 15 0 15 -2 2 -10z m-725 -22 c-3
6 -2 12 3 12 6 0 12 -6 15 -14 4 -9 -4 -15 -23 -18 -20 -3 -27 -1 -23 9 6 16
-2 16 -29 2 -15 -8 -19 -8 -13 1 14 22 49 28 63 11 7 -9 11 -10 7 -3z m679 7
c-4 -8 -1 -15 5 -15 6 0 11 -5 11 -11 0 -8 -4 -9 -13 0 -8 6 -17 7 -22 3 -4
-4 -2 3 4 16 13 25 23 30 15 7z m97 -8 c-10 -9 -11 -8 -5 6 3 10 9 15 12 12 3
-3 0 -11 -7 -18z m-711 3 c-19 -13 -30 -13 -30 0 0 6 10 10 23 10 18 0 19 -2
7 -10z m585 0 c-3 -5 -12 -10 -18 -10 -7 0 -6 4 3 10 19 12 23 12 15 0z m-750
-10 c-3 -5 -18 -9 -33 -9 l-27 1 30 8 c17 4 31 8 33 9 2 0 0 -3 -3 -9z m-68
-6 c-3 -3 -12 -4 -19 -1 -8 3 -5 6 6 6 11 1 17 -2 13 -5z m1072 -6 c-2 -2 -17
-14 -33 -28 -26 -23 -28 -23 -18 -4 6 12 8 24 5 28 -3 3 6 6 22 6 16 0 26 -1
24 -2z m-1080 -50 c1 -5 -9 -8 -21 -7 -22 0 -22 1 -3 9 17 7 17 9 3 9 -10 1
-23 -7 -29 -18 -8 -11 -19 -16 -32 -13 -18 5 -18 6 4 19 23 14 23 14 -10 9
-48 -9 -31 5 26 19 48 12 59 8 62 -27z m41 30 c0 -11 -12 -10 -30 2 -12 7 -10
9 8 7 12 0 22 -5 22 -9z m710 2 c-8 -5 -19 -10 -25 -10 -5 0 -3 5 5 10 8 5 20
10 25 10 6 0 3 -5 -5 -10z m377 4 c-3 -3 -12 -4 -19 -1 -8 3 -5 6 6 6 11 1 17
-2 13 -5z m-1952 -44 c8 -13 -5 -13 -25 0 -13 8 -13 10 2 10 9 0 20 -4 23 -10z
m945 -1 c0 -6 7 -9 15 -5 9 3 15 0 15 -8 0 -8 6 -17 13 -19 6 -3 2 -6 -9 -6
-12 -1 -25 6 -28 15 -4 10 -12 14 -22 10 -9 -3 -21 -3 -27 1 -7 4 -3 9 9 14
27 11 34 10 34 -2z m100 -14 c0 5 5 4 12 -3 9 -9 9 -15 1 -23 -8 -8 -14 -5
-22 10 -7 12 -17 21 -24 21 -8 0 -8 -3 2 -9 8 -5 9 -11 3 -15 -5 -3 -13 2 -16
11 -9 24 16 37 32 16 6 -9 12 -13 12 -8z m-170 -36 c0 -9 -19 -12 -57 -9 -13
1 -23 -4 -23 -10 0 -6 -4 -9 -9 -6 -5 3 -14 -1 -21 -9 -7 -8 -17 -15 -23 -15
-6 0 0 11 13 25 12 13 28 22 33 18 6 -4 8 0 4 10 -5 12 1 19 18 23 14 3 25 11
25 18 1 13 40 -32 40 -45z m247 36 c0 -8 -4 -12 -9 -9 -5 3 -6 10 -3 15 9 13
12 11 12 -6z m640 0 c0 -8 -5 -11 -10 -8 -5 3 -13 -1 -18 -8 -6 -9 -9 -10 -9
-2 0 9 19 27 36 33 0 0 1 -7 1 -15z m-2830 -1 c-3 -3 -12 -4 -19 -1 -8 3 -5 6
6 6 11 1 17 -2 13 -5z m2268 -4 c14 -7 8 -8 -20 -3 -22 3 -42 7 -44 9 -9 8 45
2 64 -6z m437 -17 c7 2 10 2 5 0 -4 -3 -5 -9 -1 -14 3 -5 -5 -7 -18 -5 -13 3
-27 5 -31 5 -5 1 -5 6 -2 11 4 7 -5 9 -27 5 -30 -5 -32 -4 -14 10 16 12 22 12
47 0 15 -8 34 -13 41 -12z m-901 0 c13 -16 12 -17 -3 -4 -10 7 -27 11 -38 8
-11 -3 -20 -1 -20 4 0 16 47 10 61 -8z m967 -3 c-7 -11 -17 -19 -21 -17 -11 3
-9 22 2 22 5 0 13 3 17 8 13 13 14 7 2 -13z m-183 -9 c-3 -6 -11 -11 -17 -11
-6 0 -6 6 2 15 14 17 26 13 15 -4z m-799 -3 c4 -7 4 -10 0 -6 -4 3 -26 0 -48
-8 -35 -12 -39 -12 -28 0 6 8 21 17 33 19 12 2 25 5 29 6 4 0 10 -5 14 -11z
m221 6 c-3 -3 -12 -4 -19 -1 -8 3 -5 6 6 6 11 1 17 -2 13 -5z m848 -22 c-3 -3
-11 0 -18 7 -9 10 -8 11 6 5 10 -3 15 -9 12 -12z m-335 4 c0 -2 -7 -9 -15 -16
-13 -11 -14 -10 -9 4 5 14 24 23 24 12z m-750 -21 c-7 -8 -22 -14 -34 -14 -20
1 -20 2 -1 6 11 3 24 9 30 14 15 14 19 10 5 -6z m681 -16 c-12 -12 -25 -19
-27 -16 -3 3 5 14 17 26 12 11 25 19 28 16 2 -3 -6 -15 -18 -26z m-3475 12
c-8 -13 -99 -41 -138 -42 l-33 -1 30 -8 c17 -4 22 -8 13 -9 -10 0 -18 -4 -18
-8 0 -5 65 -8 145 -9 98 0 149 -4 157 -12 9 -9 -6 -12 -67 -13 -76 -2 -77 -2
-25 -8 30 -3 202 -4 383 -1 180 3 327 2 327 -2 0 -5 -8 -8 -17 -9 -41 -2 -63
-6 -70 -14 -5 -4 51 -5 122 -1 72 3 363 6 648 6 343 0 516 3 512 10 -4 6 20
10 66 10 115 0 75 8 -54 11 -203 5 -152 19 68 19 l210 0 -25 -20 c-14 -11 -31
-20 -37 -20 -7 0 -13 -4 -13 -10 0 -5 -11 -10 -24 -10 -14 0 -27 -4 -30 -9 -8
-12 345 -25 467 -17 67 4 105 2 120 -6 20 -10 21 -10 8 5 -12 16 -8 17 57 17
69 0 99 11 65 24 -14 6 -12 10 12 26 17 11 37 20 45 19 8 0 5 -4 -8 -10 -13
-5 -20 -13 -17 -19 4 -6 17 -4 36 6 17 8 39 12 51 8 14 -4 18 -2 14 5 -8 12 4
14 20 3 14 -10 44 -54 44 -66 0 -5 -10 0 -22 11 -13 11 -29 24 -37 28 -21 12
-2 -16 26 -38 13 -10 23 -24 23 -32 0 -7 7 -15 15 -19 8 -3 15 -15 15 -26 0
-12 5 -31 11 -42 10 -18 9 -20 -5 -15 -52 22 -52 22 -38 5 7 -9 25 -19 40 -23
26 -6 42 -21 42 -39 0 -17 -56 7 -86 37 -17 18 -43 40 -58 51 -19 13 -26 24
-23 38 4 15 3 17 -8 8 -10 -8 -16 -7 -24 7 -7 11 -14 14 -18 8 -15 -20 -55
-17 -70 4 -14 21 -63 29 -63 11 0 -5 14 -10 31 -10 17 0 28 -4 24 -10 -6 -10
18 -22 70 -34 22 -5 26 -4 15 4 -11 7 -11 10 -2 10 7 0 15 -7 18 -15 4 -8 11
-15 18 -15 6 0 38 -24 71 -53 33 -29 81 -61 107 -71 26 -10 51 -22 54 -28 4
-6 3 -9 -2 -5 -17 10 -583 12 -573 2 3 -2 90 -5 195 -6 232 -1 289 -12 99 -19
l-140 -6 138 -2 c90 -1 137 -6 137 -13 0 -7 -31 -11 -87 -10 -173 1 -453 -10
-453 -18 0 -5 89 -7 198 -5 108 1 193 1 187 -1 -26 -10 -715 -51 -1020 -60
-152 -5 -177 -4 -163 8 14 11 6 13 -58 11 -40 -1 -72 2 -69 6 6 9 -52 6 -62
-3 -3 -4 -13 -1 -21 5 -11 10 -17 9 -27 -5 -11 -15 -13 -16 -19 -2 -3 8 -11
15 -18 15 -9 0 -8 -3 2 -10 11 -7 6 -10 -20 -10 -59 0 -113 12 -98 21 7 5 20
6 29 4 9 -3 22 1 29 10 10 12 9 16 -4 21 -9 3 -24 0 -33 -7 -15 -13 -15 -12
-5 7 10 18 9 21 -6 20 -9 0 -18 6 -18 14 -1 8 -2 19 -3 24 0 6 -6 5 -13 -2 -8
-8 -8 -15 1 -26 9 -11 9 -15 -1 -19 -7 -2 -9 -8 -5 -13 4 -5 12 -2 17 6 8 13
10 13 10 -1 0 -11 -11 -18 -32 -22 -37 -5 -50 7 -41 40 4 18 1 23 -13 23 -15
0 -14 4 7 27 15 18 17 22 4 11 -30 -25 -76 -40 -89 -29 -6 4 -19 5 -29 2 -17
-6 -17 -8 -3 -20 9 -7 16 -22 16 -32 0 -12 7 -19 19 -19 19 0 38 -17 28 -26
-2 -2 -17 1 -33 7 -16 7 -47 14 -69 16 -64 6 -71 10 -51 31 9 10 16 25 16 33
-1 11 -4 10 -14 -4 -7 -9 -18 -17 -25 -17 -6 0 -11 -4 -11 -10 0 -5 -5 -10
-10 -10 -6 0 -8 11 -4 25 6 24 4 25 -20 19 -16 -4 -26 -2 -26 5 0 6 -4 11 -10
11 -5 0 -10 -16 -10 -35 0 -19 -4 -35 -10 -35 -5 0 -9 3 -9 8 1 4 0 12 -1 17
-7 23 -4 50 4 57 6 4 4 13 -3 22 -10 12 -18 13 -33 5 -11 -6 -17 -17 -14 -24
2 -7 -2 -19 -10 -25 -12 -11 -13 -7 -8 21 4 19 11 41 15 50 5 9 6 19 2 23 -3
3 6 15 20 27 32 24 34 35 8 44 -10 3 -31 17 -45 30 l-26 24 0 -26 c0 -16 4
-23 13 -20 7 2 18 -6 24 -19 6 -13 7 -21 1 -18 -5 3 -8 -2 -6 -12 2 -14 -2
-18 -19 -16 -29 4 -38 -15 -17 -39 10 -11 12 -19 6 -19 -7 0 -12 -8 -13 -17 0
-11 -3 -13 -6 -5 -7 19 -43 15 -43 -5 0 -13 -9 -19 -28 -20 -30 -1 -55 14 -46
29 3 5 0 15 -6 24 -10 11 -16 12 -26 3 -19 -15 -18 1 2 29 13 18 13 26 4 38
-9 10 -16 11 -25 4 -7 -6 -17 -9 -21 -8 -16 5 -14 -11 6 -54 23 -51 25 -72 6
-65 -8 3 -20 -1 -26 -9 -14 -16 -46 -19 -55 -4 -3 6 1 13 9 16 18 7 22 34 5
34 -6 0 -17 -6 -25 -14 -8 -8 -23 -12 -36 -8 -33 8 -64 52 -37 52 5 0 8 -4 5
-9 -3 -5 1 -14 9 -21 14 -11 19 -7 16 13 -1 4 8 3 19 -3 13 -7 20 -7 20 0 0 5
9 10 19 10 12 0 18 6 17 17 -4 25 -23 27 -31 3 -6 -20 -8 -20 -24 -6 -13 12
-25 14 -49 7 -28 -8 -32 -7 -32 9 0 11 14 29 30 42 21 15 30 30 30 50 0 26
-18 41 -21 18 -1 -5 -2 -14 -3 -19 -2 -15 -16 -26 -34 -26 -13 0 -16 -8 -14
-32 4 -38 1 -39 -36 -17 l-27 16 23 -19 c32 -26 16 -37 -18 -11 -22 15 -39 19
-79 17 -28 -2 -53 0 -54 6 -2 6 -11 4 -20 -4 -10 -7 -18 -10 -18 -5 -1 5 -4
-6 -8 -25 -7 -39 -28 -54 -27 -19 1 17 -4 22 -18 20 -10 -2 -25 -10 -33 -18
-16 -16 -27 -19 -19 -5 3 5 -1 14 -9 21 -23 19 -18 38 10 38 20 0 23 -3 14
-14 -9 -11 -7 -14 8 -14 14 0 19 6 18 23 -1 16 -8 22 -26 22 -19 0 -24 6 -24
28 -1 33 -18 52 -40 43 -21 -8 -14 -32 9 -28 19 3 21 -4 4 -22 -10 -10 -17 -7
-36 15 -13 16 -21 33 -17 39 4 6 3 10 -2 8 -4 -1 -37 27 -74 63 -63 62 -65 65
-61 107 l4 42 90 0 c49 0 87 -4 84 -9z m2922 -8 c-10 -2 -28 -2 -40 0 -13 2
-5 4 17 4 22 1 32 -1 23 -4z m-2322 -28 c-18 -10 -41 -13 -58 -10 -52 12 -40
25 24 25 63 0 63 0 34 -15z m1797 -7 c-2 -5 -13 -12 -23 -18 -15 -8 -21 -6
-29 7 -8 16 -4 18 24 18 18 0 31 -3 28 -7z m417 -4 c-28 -12 -32 -17 -20 -25
12 -9 12 -10 -3 -5 -10 3 -24 6 -30 6 -7 0 2 9 18 20 17 11 39 20 50 20 14 -1
9 -5 -15 -16z m-2405 -4 c-16 -4 -41 -8 -55 -8 -22 0 -22 1 5 8 17 4 41 8 55
8 22 0 22 -1 -5 -8z m2235 -4 c-7 -7 -13 -7 -20 0 -6 6 -3 10 10 10 13 0 16
-4 10 -10z m390 3 c13 -9 13 -10 -2 -6 -21 7 -91 -12 -100 -27 -6 -8 -8 -8 -8
1 0 17 30 31 90 42 3 0 12 -4 20 -10z m410 6 c0 -2 -10 -9 -22 -15 -22 -11
-22 -10 -4 4 21 17 26 19 26 11z m-3332 -12 c-10 -2 -28 -2 -40 0 -13 2 -5 4
17 4 22 1 32 -1 23 -4z m157 -3 c-8 -12 -108 -11 -127 2 -7 4 19 8 60 8 49 0
71 -4 67 -10z m589 -11 c-16 -18 -26 -20 -74 -14 -156 18 -163 35 -13 35 l106
0 -19 -21z m1469 -20 c-8 -8 -16 -8 -30 0 -16 9 -14 10 12 11 21 0 26 -3 18
-11z m797 -4 c21 -5 22 -4 5 4 -23 11 -3 13 34 2 l23 -6 -26 -14 c-42 -23 -31
-31 44 -31 39 0 70 -4 70 -8 0 -5 -14 -9 -31 -10 -41 -1 -51 -12 -11 -12 17 0
34 -5 38 -12 5 -7 10 -4 15 10 9 24 49 31 49 8 0 -7 9 -25 20 -39 12 -15 16
-27 9 -29 -5 -2 8 -23 31 -48 22 -24 39 -49 37 -54 -2 -6 -28 -12 -59 -14
l-55 -3 -7 38 c-3 21 -6 52 -6 70 0 17 -5 35 -12 39 -7 4 -8 3 -4 -4 4 -7 4
-16 1 -22 -6 -10 -14 -5 -56 33 -10 9 -19 13 -19 8 0 -5 16 -23 36 -39 21 -18
38 -41 39 -55 2 -14 6 -39 10 -56 7 -31 6 -31 -37 -31 l-44 0 0 39 c0 28 3 38
13 34 7 -3 13 0 13 6 0 13 -36 15 -45 2 -3 -5 -1 -12 4 -16 12 -7 6 -42 -10
-61 -8 -10 -15 -12 -22 -5 -7 7 -5 17 7 30 17 18 17 21 0 47 -10 15 -20 22
-22 15 -2 -7 4 -18 14 -25 17 -13 16 -14 -5 -25 -14 -8 -20 -18 -17 -28 4 -9
1 -13 -6 -10 -7 2 -12 10 -11 18 2 8 -8 27 -22 43 -23 27 -26 37 -29 89 -1 10
-7 22 -15 26 -20 13 11 21 75 21 34 0 53 4 49 10 -3 6 -35 10 -70 10 -66 0
-79 9 -69 48 6 19 16 20 74 7z m790 -25 c0 -10 -4 -21 -9 -25 -12 -7 -25 31
-16 45 9 15 25 2 25 -20z m117 4 c-9 -9 -28 6 -21 18 4 6 10 6 17 -1 6 -6 8
-13 4 -17z m-192 6 c-3 -5 -12 -10 -20 -10 -8 0 -17 5 -20 10 -4 6 5 10 20 10
15 0 24 -4 20 -10z m52 -66 c-2 -2 -13 7 -26 19 -14 16 -19 30 -15 42 6 15 10
11 26 -20 11 -20 18 -39 15 -41z m112 52 l22 -24 -32 -11 c-18 -6 -43 -21 -56
-33 l-23 -21 0 27 c0 36 30 86 50 86 9 0 27 -11 39 -24z m71 16 c0 -5 -7 -17
-16 -28 -14 -17 -15 -17 -10 -1 3 10 6 23 6 28 0 5 5 9 10 9 6 0 10 -4 10 -8z
m313 -1 c15 -2 6 -21 -10 -21 -13 0 -15 -2 -5 -8 9 -6 6 -12 -13 -20 -18 -8
-25 -8 -25 -1 0 8 -5 7 -15 -1 -12 -10 -15 -10 -15 3 0 11 -10 15 -35 14 -19
-1 -35 -5 -35 -9 0 -4 -18 -8 -39 -8 -25 0 -41 -5 -45 -15 -3 -8 -14 -15 -25
-15 -11 0 -23 -4 -26 -10 -3 -5 -11 -10 -16 -10 -20 0 -21 32 -3 71 l19 39
140 -4 c77 -2 143 -5 148 -5z m-565 -35 c31 -16 82 -83 82 -107 0 -9 -11 -21
-24 -27 -27 -12 -38 -4 -50 35 -4 12 -21 35 -38 51 -18 19 -27 35 -23 43 5 7
4 10 -2 6 -6 -4 -16 0 -23 7 -9 12 -6 14 19 11 16 -2 43 -11 59 -19z m-78 -18
c12 -13 29 -32 39 -43 19 -20 53 -86 48 -91 -1 -2 -25 -5 -52 -9 -28 -3 -66
-9 -85 -12 -33 -7 -31 -8 25 -13 54 -6 50 -7 -37 -8 -54 -1 -98 2 -98 6 0 11
39 52 49 52 10 0 24 31 17 37 -6 6 -66 -55 -66 -67 0 -5 -10 -14 -21 -21 -17
-9 -20 -8 -14 2 6 9 3 11 -8 6 -24 -9 -21 10 7 40 26 27 26 46 1 37 -7 -3 -11
-12 -8 -20 4 -10 -2 -17 -16 -21 -18 -4 -21 -11 -17 -29 4 -16 2 -24 -6 -25
-7 0 -21 -2 -31 -4 -12 -2 -22 6 -30 23 -7 15 -19 35 -28 45 -10 10 -15 28
-12 40 3 15 2 18 -4 10 -6 -9 -13 -3 -25 22 l-15 34 31 4 c29 4 28 4 -9 7 -22
2 21 7 95 10 264 12 248 12 270 -12z m304 -39 c24 -49 9 -67 -64 -71 -55 -3
-60 -1 -60 18 0 11 7 29 16 40 13 15 15 16 10 2 -3 -12 -1 -15 10 -11 8 3 13
12 10 19 -6 15 19 33 46 34 9 0 24 -14 32 -31z m-3634 -84 c0 -12 -19 -12 -23
0 -4 9 -1 12 9 8 7 -3 14 -7 14 -8z m-384 -73 c11 -28 8 -52 -5 -52 -4 0 -7 8
-7 18 0 9 -4 27 -8 40 -11 32 8 27 20 -6z m72 -37 c7 -14 12 -28 12 -30 0 -10
-37 -4 -48 7 -17 17 -15 31 2 25 10 -4 13 -1 9 9 -9 25 13 15 25 -11z m60 -26
c-20 -13 -28 -11 -22 5 3 8 12 12 21 9 12 -5 12 -7 1 -14z m459 -35 c-5 -5
-57 13 -57 20 0 3 14 0 31 -6 16 -6 28 -12 26 -14z m528 6 c3 -5 1 -10 -4 -10
-6 0 -11 5 -11 10 0 6 2 10 4 10 3 0 8 -4 11 -10z m45 -30 c0 -5 -4 -10 -10
-10 -5 0 -10 5 -10 10 0 6 5 10 10 10 6 0 10 -4 10 -10z m14 -28 c9 -14 -9
-31 -23 -23 -7 5 -10 14 -7 20 8 13 23 14 30 3z m56 -8 c-8 -8 -23 -20 -34
-26 -19 -10 -18 -8 3 16 26 27 53 37 31 10z m1168 -21 c-15 -2 -42 -2 -60 0
-18 2 -6 4 27 4 33 0 48 -2 33 -4z m-478 -33 c-8 -5 -22 -9 -30 -9 -10 0 -8 3
5 9 27 12 43 12 25 0z m97 4 c-3 -3 -12 -4 -19 -1 -8 3 -5 6 6 6 11 1 17 -2
13 -5z m96 -1 c-13 -2 -35 -2 -50 0 -16 2 -5 4 22 4 28 0 40 -2 28 -4z m330 0
c-13 -2 -35 -2 -50 0 -16 2 -5 4 22 4 28 0 40 -2 28 -4z m-666 -9 c-3 -3 -12
-4 -19 -1 -8 3 -5 6 6 6 11 1 17 -2 13 -5z m821 -79 c-9 -9 -77 -12 -72 -3 3
4 21 8 41 8 20 0 34 -2 31 -5z m-685 -12 c-7 -2 -19 -2 -25 0 -7 3 -2 5 12 5
14 0 19 -2 13 -5z m150 0 c-23 -2 -64 -2 -90 0 -26 2 -7 3 42 3 50 0 71 -1 48
-3z m1090 0 c-7 -2 -19 -2 -25 0 -7 3 -2 5 12 5 14 0 19 -2 13 -5z m-83 -17
c0 -2 -7 -7 -16 -10 -8 -3 -12 -2 -9 4 6 10 25 14 25 6z m-1345 -16 c-3 -5
-14 -10 -23 -10 -15 0 -15 2 -2 10 20 13 33 13 25 0z m1268 3 c-13 -2 -33 -2
-45 0 -13 2 -3 4 22 4 25 0 35 -2 23 -4z m435 -50 c-15 -2 -42 -2 -60 0 -18 2
-6 4 27 4 33 0 48 -2 33 -4z m115 0 c-13 -2 -33 -2 -45 0 -13 2 -3 4 22 4 25
0 35 -2 23 -4z m-320 -30 c-13 -2 -33 -2 -45 0 -13 2 -3 4 22 4 25 0 35 -2 23
-4z m-130 -30 c-13 -2 -35 -2 -50 0 -16 2 -5 4 22 4 28 0 40 -2 28 -4z m-123
-33 c0 -5 -2 -10 -4 -10 -3 0 -8 5 -11 10 -3 6 -1 10 4 10 6 0 11 -4 11 -10z
m30 6 c0 -3 -4 -8 -10 -11 -5 -3 -10 -1 -10 4 0 6 5 11 10 11 6 0 10 -2 10 -4z
m-1293 -42 c-3 -3 -12 -4 -19 -1 -8 3 -5 6 6 6 11 1 17 -2 13 -5z m646 -99 c4
-6 10 -5 16 4 8 12 12 13 25 2 12 -10 42 -12 116 -9 54 3 105 1 112 -4 8 -5
-94 -7 -252 -4 -302 6 -322 7 -225 15 107 9 199 7 208 -4z m307 -7 c0 -6 -6
-5 -15 2 -8 7 -15 14 -15 16 0 2 7 1 15 -2 8 -4 15 -11 15 -16z"/>
<path d="M3230 2970 c0 -5 5 -10 10 -10 6 0 10 5 10 10 0 6 -4 10 -10 10 -5 0
-10 -4 -10 -10z"/>
<path d="M3417 2917 c-3 -8 1 -14 8 -14 7 0 11 6 8 14 -3 7 -6 13 -8 13 -2 0
-5 -6 -8 -13z"/>
<path d="M4266 2815 c4 -8 8 -15 10 -15 2 0 4 7 4 15 0 8 -4 15 -10 15 -5 0
-7 -7 -4 -15z"/>
<path d="M4340 2656 c0 -2 8 -10 18 -17 15 -13 16 -12 3 4 -13 16 -21 21 -21
13z"/>
<path d="M575 1420 c-3 -5 3 -10 15 -10 12 0 18 5 15 10 -3 6 -10 10 -15 10
-5 0 -12 -4 -15 -10z"/>
<path d="M3879 1303 c-13 -16 -12 -17 4 -4 16 13 21 21 13 21 -2 0 -10 -8 -17
-17z"/>
<path d="M3636 1058 c5 -8 2 -9 -9 -5 -9 3 -19 2 -22 -4 -4 -5 6 -8 24 -7 23
2 28 5 19 15 -13 16 -22 17 -12 1z"/>
<path d="M1535 850 c-77 -3 148 -7 499 -8 352 -1 636 1 633 5 -9 8 -943 11
-1132 3z"/>
<path d="M3583 845 c0 -8 6 -16 14 -19 7 -3 13 -2 13 3 0 5 -6 14 -13 20 -10
8 -14 7 -14 -4z"/>
<path d="M1343 843 c9 -2 25 -2 35 0 9 3 1 5 -18 5 -19 0 -27 -2 -17 -5z"/>
<path d="M1080 819 c0 -5 5 -7 10 -4 6 3 10 8 10 11 0 2 -4 4 -10 4 -5 0 -10
-5 -10 -11z"/>
<path d="M806 804 c-11 -28 -6 -49 14 -62 11 -7 20 -8 20 -3 0 5 -6 11 -14 14
-15 6 -16 23 -3 44 4 6 3 14 -2 17 -5 3 -12 -1 -15 -10z"/>
<path d="M1252 800 c0 -14 2 -19 5 -12 2 6 2 18 0 25 -3 6 -5 1 -5 -13z"/>
<path d="M1310 810 c0 -5 4 -10 9 -10 6 0 13 5 16 10 3 6 -1 10 -9 10 -9 0
-16 -4 -16 -10z"/>
<path d="M1174 799 c-3 -6 -2 -15 2 -19 12 -12 38 5 30 19 -9 14 -23 14 -32 0z"/>
<path d="M1270 802 c0 -4 5 -13 12 -20 9 -9 7 -13 -5 -18 -9 -3 -24 -4 -32 0
-17 6 -21 -9 -5 -19 6 -4 8 -10 6 -14 -3 -4 4 -7 14 -8 25 -2 57 34 43 48 -6
6 -9 18 -6 25 3 8 -1 14 -11 14 -9 0 -16 -4 -16 -8z"/>
<path d="M1085 779 c-4 -6 -5 -12 -2 -15 2 -3 7 2 10 11 7 17 1 20 -8 4z"/>
<path d="M1343 766 c3 -8 -1 -17 -10 -20 -12 -5 -13 -9 -3 -21 13 -15 35 -10
25 6 -4 5 -1 9 4 9 6 0 11 -8 11 -17 0 -14 2 -15 9 -5 4 8 12 13 17 12 5 -1
10 3 12 9 2 6 -6 11 -17 11 -12 0 -21 4 -21 9 0 5 -7 12 -16 15 -11 4 -15 2
-11 -8z"/>
<path d="M1460 740 c0 -7 -7 -10 -15 -7 -8 4 -17 2 -20 -2 -5 -9 17 -21 41
-21 16 0 19 26 4 35 -5 3 -10 1 -10 -5z"/>
<path d="M851 714 c0 -11 3 -14 6 -6 3 7 2 16 -1 19 -3 4 -6 -2 -5 -13z"/>
<path d="M1172 713 c2 -10 10 -18 18 -18 8 0 16 8 18 18 2 12 -3 17 -18 17
-15 0 -20 -5 -18 -17z"/>
<path d="M1384 698 c-24 -11 -28 -58 -5 -58 8 0 11 6 7 16 -4 12 -2 15 9 11 8
-4 17 -2 20 4 4 5 13 2 23 -8 16 -16 17 -15 20 2 4 18 -16 37 -30 29 -4 -3 -8
0 -8 5 0 13 -8 13 -36 -1z"/>
<path d="M1888 693 c7 -3 16 -2 19 1 4 3 -2 6 -13 5 -11 0 -14 -3 -6 -6z"/>
<path d="M1776 665 c-3 -8 -1 -15 4 -15 6 0 10 7 10 15 0 8 -2 15 -4 15 -2 0
-6 -7 -10 -15z"/>
<path d="M1628 652 c-10 -2 -18 -8 -18 -14 0 -5 6 -8 14 -5 10 4 12 0 9 -14
-4 -15 0 -19 20 -19 17 0 28 -7 32 -21 7 -21 8 -20 27 10 23 37 32 40 22 9 -6
-22 -6 -23 13 -5 11 10 24 17 29 16 24 -4 41 2 41 16 0 8 -9 15 -19 15 -11 0
-16 -4 -13 -10 3 -5 1 -10 -4 -10 -6 0 -11 6 -11 13 0 9 -3 8 -9 -2 -6 -9 -10
-10 -16 -2 -5 9 -10 9 -21 0 -8 -6 -15 -9 -15 -5 -1 3 -2 10 -3 15 -3 23 -16
21 -16 -2 0 -33 -11 -34 -30 -4 -9 13 -22 21 -32 19z"/>
<path d="M1386 621 c-9 -9 -14 -20 -10 -23 9 -10 44 4 44 18 0 22 -16 25 -34
5z"/>
<path d="M1845 610 c3 -5 8 -10 11 -10 2 0 4 5 4 10 0 6 -5 10 -11 10 -5 0 -7
-4 -4 -10z"/>
<path d="M1736 554 c-11 -28 19 -40 57 -25 16 6 16 9 5 18 -26 21 -55 24 -62
7z"/>
<path d="M1935 540 c-4 -6 -3 -16 3 -22 6 -6 12 -6 17 2 4 6 3 16 -3 22 -6 6
-12 6 -17 -2z"/>
<path d="M2086 541 c-4 -5 3 -7 14 -4 23 6 26 13 6 13 -8 0 -17 -4 -20 -9z"/>
<path d="M2148 522 c-105 -5 -60 -21 50 -17 59 2 144 4 190 4 45 1 82 5 82 10
0 9 -185 10 -322 3z"/>
<path d="M2480 520 c0 -6 52 -9 138 -9 112 2 126 3 77 9 -91 12 -215 11 -215
0z"/>
<path d="M2838 523 c23 -2 59 -2 80 0 20 2 1 4 -43 4 -44 0 -61 -2 -37 -4z"/>
<path d="M2988 523 c12 -2 30 -2 40 0 9 3 -1 5 -23 4 -22 0 -30 -2 -17 -4z"/>
<path d="M3125 520 c4 -6 11 -8 16 -5 14 9 11 15 -7 15 -8 0 -12 -5 -9 -10z"/>
<path d="M3160 520 c0 -5 5 -10 10 -10 6 0 10 5 10 10 0 6 -4 10 -10 10 -5 0
-10 -4 -10 -10z"/>
<path d="M2528 473 c7 -3 16 -2 19 1 4 3 -2 6 -13 5 -11 0 -14 -3 -6 -6z"/>
<path d="M3860 763 c0 -13 5 -23 10 -23 13 0 13 11 0 30 -8 12 -10 11 -10 -7z"/>
<path d="M4793 823 c9 -2 25 -2 35 0 9 3 1 5 -18 5 -19 0 -27 -2 -17 -5z"/>
<path d="M4490 840 c0 -5 5 -10 10 -10 6 0 10 5 10 10 0 6 -4 10 -10 10 -5 0
-10 -4 -10 -10z"/>
<path d="M4555 780 c3 -5 8 -10 11 -10 2 0 4 5 4 10 0 6 -5 10 -11 10 -5 0 -7
-4 -4 -10z"/>
<path d="M4203 833 c15 -2 39 -2 55 0 15 2 2 4 -28 4 -30 0 -43 -2 -27 -4z"/>
<path d="M4308 833 c12 -2 30 -2 40 0 9 3 -1 5 -23 4 -22 0 -30 -2 -17 -4z"/>
<path d="M4250 785 c0 -8 4 -15 10 -15 5 0 7 7 4 15 -4 8 -8 15 -10 15 -2 0
-4 -7 -4 -15z"/>
<path d="M4379 795 c-9 -54 -6 -62 18 -47 8 5 8 13 -2 32 -8 14 -15 21 -16 15z"/>
<path d="M4415 790 c-3 -5 -2 -10 4 -10 5 0 13 5 16 10 3 6 2 10 -4 10 -5 0
-13 -4 -16 -10z"/>
<path d="M4338 783 c7 -3 16 -2 19 1 4 3 -2 6 -13 5 -11 0 -14 -3 -6 -6z"/>
<path d="M4345 700 c-3 -5 -1 -10 4 -10 6 0 11 5 11 10 0 6 -2 10 -4 10 -3 0
-8 -4 -11 -10z"/>
<path d="M335 3140 c27 -12 43 -12 25 0 -8 5 -22 9 -30 9 -10 0 -8 -3 5 -9z"/>
<path d="M380 3120 c0 -5 5 -10 11 -10 5 0 7 5 4 10 -3 6 -8 10 -11 10 -2 0
-4 -4 -4 -10z"/>
<path d="M20 3106 c0 -8 -6 -17 -12 -19 -9 -4 -8 -5 2 -6 8 0 23 4 32 7 17 7
16 8 -2 20 -16 10 -20 10 -20 -2z"/>
<path d="M260 3101 c0 -5 7 -15 17 -22 15 -13 15 -12 4 9 -12 23 -21 28 -21
13z"/>
<path d="M120 3080 c0 -5 4 -10 9 -10 6 0 13 5 16 10 3 6 -1 10 -9 10 -9 0
-16 -4 -16 -10z"/>
<path d="M383 3069 c-2 -23 3 -25 10 -4 4 8 3 16 -1 19 -4 3 -9 -4 -9 -15z"/>
<path d="M0 3031 c0 -10 19 -25 25 -20 1 2 -3 10 -11 17 -8 7 -14 8 -14 3z"/>
<path d="M3162 2925 c0 -16 2 -22 5 -12 2 9 2 23 0 30 -3 6 -5 -1 -5 -18z"/>
<path d="M649 2913 c-13 -16 -12 -17 4 -4 9 7 17 15 17 17 0 8 -8 3 -21 -13z"/>
<path d="M1155 2810 c28 -12 47 -12 40 0 -3 6 -18 10 -33 9 -24 0 -25 -1 -7
-9z"/>
<path d="M725 2780 c-8 -13 5 -13 25 0 13 8 13 10 -2 10 -9 0 -20 -4 -23 -10z"/>
<path d="M675 2770 c3 -5 11 -10 16 -10 6 0 7 5 4 10 -3 6 -11 10 -16 10 -6 0
-7 -4 -4 -10z"/>
<path d="M1619 2623 c-37 -45 -40 -55 -6 -24 20 19 37 36 37 38 0 9 -19 1 -31
-14z"/>
<path d="M3315 2614 c-16 -14 -21 -21 -10 -15 30 14 61 40 50 41 -5 0 -23 -12
-40 -26z"/>
<path d="M4858 2533 c6 -2 18 -2 25 0 6 3 1 5 -13 5 -14 0 -19 -2 -12 -5z"/>
<path d="M4150 2522 c0 -12 19 -26 26 -19 2 2 -2 10 -11 17 -9 8 -15 8 -15 2z"/>
<path d="M3945 2500 c-3 -5 -1 -10 4 -10 6 0 11 5 11 10 0 6 -2 10 -4 10 -3 0
-8 -4 -11 -10z"/>
<path d="M4960 2500 c0 -5 5 -10 11 -10 5 0 7 5 4 10 -3 6 -8 10 -11 10 -2 0
-4 -4 -4 -10z"/>
<path d="M4910 2489 c0 -5 5 -7 10 -4 6 3 10 8 10 11 0 2 -4 4 -10 4 -5 0 -10
-5 -10 -11z"/>
<path d="M1780 2480 c0 -5 7 -10 16 -10 8 0 12 5 9 10 -3 6 -10 10 -16 10 -5
0 -9 -4 -9 -10z"/>
<path d="M4944 2469 c-3 -5 6 -9 20 -9 31 0 34 6 6 13 -11 3 -23 1 -26 -4z"/>
<path d="M5030 2470 c0 -6 7 -10 15 -10 8 0 15 2 15 4 0 2 -7 6 -15 10 -8 3
-15 1 -15 -4z"/>
<path d="M5095 2470 c3 -5 11 -10 16 -10 6 0 7 5 4 10 -3 6 -11 10 -16 10 -6
0 -7 -4 -4 -10z"/>
<path d="M1745 2460 c3 -5 8 -10 11 -10 2 0 4 5 4 10 0 6 -5 10 -11 10 -5 0
-7 -4 -4 -10z"/>
<path d="M3960 2466 c0 -2 7 -7 16 -10 8 -3 12 -2 9 4 -6 10 -25 14 -25 6z"/>
<path d="M562 2448 c-7 -7 -12 -9 -12 -5 0 4 -9 3 -20 -3 -11 -6 -20 -16 -20
-22 0 -7 7 -5 18 4 9 9 22 13 29 11 6 -2 14 1 18 7 10 16 1 22 -13 8z"/>
<path d="M4835 2450 c3 -5 8 -10 11 -10 2 0 4 5 4 10 0 6 -5 10 -11 10 -5 0
-7 -4 -4 -10z"/>
<path d="M2534 2434 c-18 -14 -18 -15 4 -4 12 6 22 13 22 15 0 8 -5 6 -26 -11z"/>
<path d="M4934 2429 c-3 -5 7 -9 22 -9 15 0 24 3 20 7 -11 11 -35 12 -42 2z"/>
<path d="M4875 2420 c-3 -5 -1 -10 4 -10 6 0 11 5 11 10 0 6 -2 10 -4 10 -3 0
-8 -4 -11 -10z"/>
<path d="M5000 2421 c0 -5 7 -12 16 -15 14 -5 15 -4 4 9 -14 17 -20 19 -20 6z"/>
<path d="M3300 2390 c-6 -11 -8 -20 -6 -20 3 0 10 9 16 20 6 11 8 20 6 20 -3
0 -10 -9 -16 -20z"/>
<path d="M3545 2400 c3 -5 8 -10 11 -10 2 0 4 5 4 10 0 6 -5 10 -11 10 -5 0
-7 -4 -4 -10z"/>
<path d="M638 2393 c7 -3 16 -2 19 1 4 3 -2 6 -13 5 -11 0 -14 -3 -6 -6z"/>
<path d="M4988 2393 c7 -3 16 -2 19 1 4 3 -2 6 -13 5 -11 0 -14 -3 -6 -6z"/>
<path d="M2499 2373 c-13 -17 -13 -17 6 -3 11 8 22 16 24 17 2 2 0 3 -6 3 -6
0 -17 -8 -24 -17z"/>
<path d="M1646 2365 c7 -18 23 -19 44 -4 13 9 13 10 0 6 -8 -2 -23 0 -32 5
-14 6 -16 5 -12 -7z"/>
<path d="M1880 2370 c0 -5 5 -10 11 -10 5 0 7 5 4 10 -3 6 -8 10 -11 10 -2 0
-4 -4 -4 -10z"/>
<path d="M2090 2370 c0 -6 7 -10 15 -10 8 0 15 2 15 4 0 2 -7 6 -15 10 -8 3
-15 1 -15 -4z"/>
<path d="M2677 2360 c-3 -11 -3 -20 -1 -20 2 0 8 9 14 20 6 11 7 20 2 20 -6 0
-12 -9 -15 -20z"/>
<path d="M1710 2350 c0 -5 7 -10 15 -10 8 0 15 5 15 10 0 6 -7 10 -15 10 -8 0
-15 -4 -15 -10z"/>
<path d="M1600 2340 c0 -5 5 -10 11 -10 5 0 7 5 4 10 -3 6 -8 10 -11 10 -2 0
-4 -4 -4 -10z"/>
<path d="M370 2330 c0 -5 7 -10 16 -10 8 0 12 5 9 10 -3 6 -10 10 -16 10 -5 0
-9 -4 -9 -10z"/>
<path d="M1980 2330 c0 -5 5 -10 11 -10 5 0 7 5 4 10 -3 6 -8 10 -11 10 -2 0
-4 -4 -4 -10z"/>
<path d="M210 2320 c0 -5 5 -10 11 -10 5 0 7 5 4 10 -3 6 -8 10 -11 10 -2 0
-4 -4 -4 -10z"/>
<path d="M2195 2320 c3 -5 11 -10 16 -10 6 0 7 5 4 10 -3 6 -11 10 -16 10 -6
0 -7 -4 -4 -10z"/>
<path d="M2808 2323 c7 -3 16 -2 19 1 4 3 -2 6 -13 5 -11 0 -14 -3 -6 -6z"/>
<path d="M2280 2308 c0 -4 4 -8 9 -8 6 0 12 4 15 8 3 5 -1 9 -9 9 -8 0 -15 -4
-15 -9z"/>
<path d="M2330 2310 c0 -5 5 -10 11 -10 5 0 7 5 4 10 -3 6 -8 10 -11 10 -2 0
-4 -4 -4 -10z"/>
<path d="M4820 2290 c0 -5 5 -10 11 -10 5 0 7 5 4 10 -3 6 -8 10 -11 10 -2 0
-4 -4 -4 -10z"/>
<path d="M5156 2285 c10 -8 26 -14 34 -14 9 0 4 6 -10 14 -33 19 -49 19 -24 0z"/>
<path d="M4750 2281 c0 -5 5 -13 10 -16 6 -3 10 -2 10 4 0 5 -4 13 -10 16 -5
3 -10 2 -10 -4z"/>
<path d="M1555 2260 c3 -5 11 -10 16 -10 6 0 7 5 4 10 -3 6 -11 10 -16 10 -6
0 -7 -4 -4 -10z"/>
<path d="M2415 2260 c-3 -6 1 -7 9 -4 18 7 21 14 7 14 -6 0 -13 -4 -16 -10z"/>
<path d="M4915 2243 l-18 -28 27 24 c28 26 31 31 17 31 -5 0 -17 -12 -26 -27z"/>
<path d="M4885 2199 c-4 -6 -5 -12 -2 -15 2 -3 7 2 10 11 7 17 1 20 -8 4z"/>
<path d="M4918 2173 c7 -3 16 -2 19 1 4 3 -2 6 -13 5 -11 0 -14 -3 -6 -6z"/>
<path d="M5250 2146 c0 -2 7 -7 16 -10 8 -3 12 -2 9 4 -6 10 -25 14 -25 6z"/>
<path d="M4938 2133 c7 -3 16 -2 19 1 4 3 -2 6 -13 5 -11 0 -14 -3 -6 -6z"/>
<path d="M2979 2053 c-13 -16 -12 -17 4 -4 16 13 21 21 13 21 -2 0 -10 -8 -17
-17z"/>
<path d="M3190 2051 c0 -5 5 -13 10 -16 6 -3 10 -2 10 4 0 5 -4 13 -10 16 -5
3 -10 2 -10 -4z"/>
<path d="M4135 2050 c-3 -5 -1 -10 4 -10 6 0 11 5 11 10 0 6 -2 10 -4 10 -3 0
-8 -4 -11 -10z"/>
<path d="M3110 2038 c0 -9 5 -20 10 -23 13 -8 13 5 0 25 -8 13 -10 13 -10 -2z"/>
<path d="M1425 2000 c3 -5 10 -10 16 -10 5 0 9 5 9 10 0 6 -7 10 -16 10 -8 0
-12 -4 -9 -10z"/>
<path d="M2892 1955 c2 -18 5 -21 15 -13 17 14 16 25 -2 32 -11 4 -14 -1 -13
-19z"/>
<path d="M3177 1959 c12 -12 25 -20 28 -17 3 3 -7 13 -22 23 l-28 17 22 -23z"/>
<path d="M2935 1950 c-3 -6 1 -7 9 -4 18 7 21 14 7 14 -6 0 -13 -4 -16 -10z"/>
<path d="M2858 1913 c7 -3 16 -2 19 1 4 3 -2 6 -13 5 -11 0 -14 -3 -6 -6z"/>
<path d="M4801 1884 c0 -11 3 -14 6 -6 3 7 2 16 -1 19 -3 4 -6 -2 -5 -13z"/>
<path d="M2940 1828 c-24 -28 -35 -46 -25 -40 24 12 48 39 64 70 17 31 12 28
-39 -30z"/>
<path d="M700 1850 c8 -5 20 -10 25 -10 6 0 3 5 -5 10 -8 5 -19 10 -25 10 -5
0 -3 -5 5 -10z"/>
<path d="M2869 1833 c-34 -38 -53 -63 -46 -63 2 0 21 20 41 45 41 50 44 61 5
18z"/>
<path d="M4629 1753 c-13 -16 -12 -17 4 -4 9 7 17 15 17 17 0 8 -8 3 -21 -13z"/>
<path d="M900 1750 c0 -5 5 -10 10 -10 6 0 10 5 10 10 0 6 -4 10 -10 10 -5 0
-10 -4 -10 -10z"/>
<path d="M4450 1725 c0 -8 -4 -15 -10 -15 -5 0 -10 -8 -10 -17 0 -13 2 -15 8
-5 5 7 16 10 25 6 10 -3 24 -1 32 6 8 7 22 10 30 6 10 -4 14 -2 9 5 -3 6 -17
9 -31 6 -15 -3 -27 1 -30 9 -7 19 -23 18 -23 -1z"/>
<path d="M4485 1730 c-3 -6 1 -7 9 -4 18 7 21 14 7 14 -6 0 -13 -4 -16 -10z"/>
<path d="M4805 1730 c-16 -7 -17 -9 -3 -9 9 -1 20 4 23 9 7 11 7 11 -20 0z"/>
<path d="M4209 1698 c-11 -8 -10 -9 4 -4 19 6 24 -10 5 -18 -7 -2 -3 -4 9 -2
31 3 35 10 14 23 -12 8 -22 8 -32 1z"/>
<path d="M4385 1692 c3 -7 5 -16 5 -18 0 -2 5 -4 12 -4 6 0 8 3 5 7 -4 3 -3
11 3 17 6 8 3 12 -11 12 -12 0 -18 -5 -14 -14z"/>
<path d="M550 1670 c-13 -8 -12 -10 3 -10 9 0 17 5 17 10 0 12 -1 12 -20 0z"/>
</g>
</svg>
