<?xml version="1.0" standalone="no"?>
<!DOCTYPE svg PUBLIC "-//W3C//DTD SVG 20010904//EN"
 "http://www.w3.org/TR/2001/REC-SVG-20010904/DTD/svg10.dtd">
<svg version="1.0" xmlns="http://www.w3.org/2000/svg"
 width="2048.000000pt" height="2048.000000pt" viewBox="0 0 2048.000000 2048.000000"
 preserveAspectRatio="xMidYMid meet">

<g transform="translate(0.000000,2048.000000) scale(0.100000,-0.100000)"
fill="#000000" stroke="none">
<path d="M0 10240 l0 -10240 10240 0 10240 0 0 10240 0 10240 -10240 0 -10240
0 0 -10240z m20143 3650 l2 -6250 -287 0 -288 0 0 560 0 560 -207 -2 -208 -3
-3 -667 -2 -668 495 -2 495 -3 0 -3535 0 -3535 -9900 0 -9900 0 0 9895 c0
5442 0 9897 0 9900 0 3 4455 4 9900 3 l9900 -3 3 -6250z"/>
<path d="M1890 14290 c-173 -22 -313 -61 -458 -131 -326 -156 -565 -408 -670
-709 -51 -145 -66 -239 -66 -400 1 -204 36 -344 140 -551 44 -89 178 -294 236
-363 51 -59 388 -396 443 -443 28 -23 70 -60 95 -83 40 -38 119 -105 450 -378
385 -318 531 -488 594 -695 29 -92 19 -222 -21 -309 -45 -96 -147 -195 -260
-252 -156 -78 -420 -78 -576 0 -183 92 -372 289 -502 522 -40 72 -61 86 -85
57 -7 -8 -16 -15 -21 -15 -5 0 -68 -37 -141 -81 -156 -96 -334 -203 -470 -282
-53 -32 -100 -62 -103 -67 -9 -15 150 -285 227 -385 103 -134 276 -306 396
-392 142 -102 414 -226 540 -246 17 -3 35 -8 40 -11 17 -10 301 -36 392 -36
76 0 172 8 325 26 91 10 241 53 355 100 362 151 649 452 764 801 70 212 94
482 61 683 -64 387 -284 746 -666 1086 -63 56 -264 228 -379 324 -280 235
-336 283 -355 304 -11 12 -31 29 -44 38 -90 63 -403 375 -451 449 -79 123 -91
262 -30 361 57 92 117 137 239 179 165 57 373 16 549 -108 62 -44 243 -219
304 -295 14 -18 35 -44 45 -57 19 -24 20 -24 48 -5 16 10 41 31 55 45 14 14
154 139 313 278 158 138 287 256 287 261 0 17 -286 298 -380 372 -274 217
-496 327 -780 388 -111 24 -328 33 -440 20z"/>
<path d="M9070 11735 l0 -2565 455 0 455 0 0 206 0 206 63 -58 c130 -121 322
-251 461 -314 91 -41 265 -95 371 -116 125 -25 420 -25 560 0 101 18 322 86
411 127 69 31 238 134 309 188 90 67 262 244 337 345 95 128 187 285 242 417
26 63 51 121 55 129 28 55 85 328 102 490 22 208 3 510 -46 739 -20 92 -80
285 -105 338 -10 21 -33 70 -51 108 -32 68 -116 215 -129 225 -3 3 -27 34 -53
70 -104 147 -244 285 -403 399 -92 65 -318 181 -389 200 -217 56 -304 70 -475
78 -148 6 -288 -6 -429 -38 -47 -11 -96 -22 -107 -24 -42 -9 -156 -56 -237
-96 -144 -73 -316 -193 -425 -298 -29 -28 -55 -51 -57 -51 -3 0 -5 419 -5 930
l0 930 -455 0 -455 0 0 -2565z m2170 346 c120 -33 195 -66 288 -128 185 -122
345 -331 410 -533 86 -268 77 -622 -24 -871 -67 -167 -207 -350 -349 -456 -64
-48 -159 -99 -247 -133 -144 -55 -392 -65 -628 -24 -122 21 -282 109 -396 217
-33 32 -68 63 -77 70 -30 23 -165 227 -182 275 -10 26 -21 56 -26 67 -32 69
-68 258 -75 389 -18 325 88 642 285 849 140 148 305 239 521 287 117 27 388
22 500 -9z"/>
<path d="M5800 12939 c-41 -5 -118 -18 -170 -30 -52 -11 -105 -23 -117 -25
-45 -9 -170 -57 -248 -97 -179 -89 -363 -230 -487 -372 -157 -179 -326 -465
-386 -650 -99 -311 -127 -500 -119 -819 6 -256 28 -384 108 -636 66 -205 220
-476 365 -640 65 -73 245 -250 255 -250 4 0 14 -6 22 -14 26 -27 181 -123 264
-164 115 -58 297 -119 432 -144 164 -31 462 -31 601 0 126 28 284 83 395 139
101 50 289 174 351 230 23 21 61 56 85 77 l44 39 3 -206 2 -207 445 0 445 0 0
1845 0 1845 -445 0 -445 0 -1 -182 c-1 -101 0 -198 1 -215 1 -18 -2 -33 -7
-33 -5 0 -35 27 -68 61 -105 106 -320 257 -440 309 -22 10 -60 27 -85 38 -40
18 -107 42 -135 48 -5 1 -41 10 -80 19 -172 41 -404 54 -585 34z m690 -863
c240 -66 424 -200 569 -414 68 -100 131 -248 145 -338 4 -21 11 -66 17 -99 15
-80 14 -333 -1 -420 -7 -38 -14 -83 -16 -100 -12 -89 -78 -241 -160 -368 -55
-85 -184 -215 -266 -268 -95 -61 -243 -126 -308 -134 -14 -2 -62 -9 -106 -16
-76 -11 -292 -8 -383 6 -96 14 -229 68 -302 121 -26 19 -50 34 -54 34 -17 0
-154 132 -207 200 -32 41 -63 80 -68 87 -6 7 -10 17 -10 23 0 5 -4 10 -8 10
-20 0 -95 194 -133 340 -28 108 -36 335 -16 465 18 115 64 269 102 346 100
199 288 390 453 461 26 11 61 26 79 34 28 13 143 44 213 58 14 2 102 3 195 1
146 -3 183 -7 265 -29z"/>
<path d="M15200 12935 c-363 -44 -616 -139 -890 -335 -181 -129 -340 -299
-467 -498 -122 -191 -233 -456 -259 -620 -2 -12 -5 -32 -8 -45 -51 -278 -54
-566 -10 -822 9 -49 17 -104 19 -120 10 -75 78 -260 148 -405 165 -336 485
-649 842 -820 95 -45 332 -126 440 -149 208 -45 503 -62 714 -42 484 48 881
216 1190 506 78 74 188 200 225 257 l18 27 -69 31 c-170 79 -439 207 -557 264
l-130 63 -63 -54 c-81 -68 -220 -158 -303 -195 -134 -60 -372 -108 -542 -108
-122 0 -224 14 -361 50 -279 73 -498 254 -635 525 -25 49 -92 272 -92 306 0 5
630 9 1505 9 l1505 0 0 174 c0 295 -31 497 -114 750 -127 386 -379 713 -741
961 -88 60 -289 157 -418 201 -256 87 -657 124 -947 89z m523 -770 c115 -18
152 -31 271 -91 123 -63 198 -115 276 -193 98 -98 172 -217 219 -352 l19 -54
-1025 -3 c-565 -1 -1028 0 -1030 2 -8 8 85 182 145 271 102 152 186 228 342
309 144 74 226 101 350 116 58 6 112 13 120 15 29 7 219 -5 313 -20z"/>
<path d="M19445 12939 c-67 -13 -199 -56 -256 -85 -137 -68 -264 -209 -371
-411 -32 -59 -58 -103 -58 -98 0 6 -2 123 -3 260 l-2 250 -382 3 -383 2 0
-1845 0 -1845 450 0 450 0 0 1023 c0 915 3 1093 25 1287 23 217 117 441 231
552 107 103 158 129 263 129 65 1 152 -21 214 -53 22 -11 43 -16 48 -11 5 5
27 60 49 123 23 63 47 129 55 147 8 17 15 36 15 42 0 13 124 362 145 410 21
45 11 55 -88 85 -144 45 -284 56 -402 35z"/>
<path d="M5275 8780 c-27 -4 -66 -11 -85 -14 -72 -13 -195 -83 -251 -144 -71
-76 -102 -136 -135 -257 -25 -92 -27 -115 -27 -285 -1 -169 2 -194 26 -284 28
-104 57 -174 91 -216 122 -149 261 -204 521 -205 270 0 418 60 550 225 29 36
60 112 86 215 20 78 23 114 23 270 0 155 -3 193 -23 275 -60 245 -194 375
-431 416 -54 9 -298 12 -345 4z m226 -242 c59 -20 91 -49 120 -113 35 -75 48
-166 48 -340 1 -228 -25 -339 -93 -410 -82 -85 -221 -88 -302 -7 -75 75 -97
171 -98 427 0 158 2 190 22 260 36 123 65 159 152 186 38 11 113 10 151 -3z"/>
<path d="M6649 8776 c-2 -2 -26 -7 -52 -10 -67 -9 -133 -36 -200 -80 -119 -79
-175 -170 -184 -301 -11 -159 29 -256 134 -323 67 -42 133 -59 318 -83 264
-33 325 -64 333 -170 4 -54 3 -58 -34 -96 -53 -55 -99 -67 -264 -67 -99 0
-152 4 -197 17 -69 19 -177 67 -235 104 -21 12 -39 23 -41 23 -5 0 58 -329 65
-335 2 -3 39 -14 81 -25 315 -80 699 -61 863 43 125 78 202 248 191 417 -7
109 -35 173 -105 240 -94 91 -176 121 -442 160 -209 31 -209 31 -230 58 -24
30 -25 51 -3 97 12 26 32 43 72 63 53 26 63 27 201 27 166 0 271 -18 424 -71
22 -8 41 -12 43 -10 2 1 -4 23 -12 47 -9 24 -23 73 -30 109 -25 114 -19 106
-108 130 -44 12 -97 24 -116 27 -45 6 -466 14 -472 9z"/>
<path d="M11870 8778 c-3 -3 -31 -8 -63 -12 -105 -11 -231 -78 -306 -162 -52
-58 -115 -185 -135 -275 -20 -83 -15 -425 7 -514 32 -132 90 -239 165 -307
111 -100 363 -149 608 -118 116 14 315 62 362 87 l32 18 0 258 0 258 -157 -3
-158 -3 -3 -171 -2 -171 -76 -17 c-104 -22 -205 -21 -253 4 -98 49 -130 137
-138 373 -9 248 27 381 120 444 60 40 122 53 261 53 114 0 248 -25 343 -65 20
-9 38 -13 41 -10 3 3 -8 67 -24 142 l-29 138 -38 12 c-21 7 -59 15 -85 18 -26
3 -60 8 -77 10 -53 7 -390 18 -395 13z"/>
<path d="M417 8753 c-4 -3 -7 -305 -7 -670 l0 -663 498 2 497 3 0 105 0 105
-287 3 -288 2 0 560 0 560 -203 0 c-112 0 -207 -3 -210 -7z"/>
<path d="M1520 8090 l0 -670 210 0 210 0 -2 668 -3 667 -207 3 -208 2 0 -670z"/>
<path d="M2110 8091 l0 -671 364 0 c318 0 401 4 551 25 47 6 116 33 158 61
141 93 169 364 52 502 -51 61 -181 111 -294 113 l-66 2 70 7 c150 17 250 80
279 179 32 110 12 255 -46 325 -32 39 -77 65 -168 99 -52 20 -80 21 -477 25
l-423 4 0 -671z m743 425 c60 -25 72 -48 72 -142 0 -79 -2 -85 -28 -110 -40
-37 -76 -44 -229 -44 l-138 0 0 155 0 155 145 0 c101 0 156 -4 178 -14z m0
-527 c50 -13 103 -61 118 -106 16 -49 7 -138 -18 -171 -44 -59 -73 -67 -255
-70 l-168 -4 0 181 0 181 143 0 c78 0 159 -5 180 -11z"/>
<path d="M3460 8090 l0 -670 210 0 210 0 2 327 3 327 109 -205 c60 -112 122
-226 138 -254 16 -27 45 -83 65 -122 l37 -73 228 0 c125 0 228 2 228 5 0 2
-67 104 -149 227 -81 123 -160 242 -174 264 l-26 41 45 7 c61 8 148 51 179 88
85 101 115 253 79 407 -34 153 -142 248 -322 286 -51 11 -159 15 -464 15
l-398 0 0 -670z m693 407 c35 -26 66 -72 74 -107 2 -8 3 -51 3 -95 -1 -100
-19 -139 -85 -180 -45 -28 -57 -30 -157 -33 l-108 -4 0 227 0 227 118 -4 c112
-3 121 -5 155 -31z"/>
<path d="M8240 8090 l0 -670 490 0 490 0 0 110 0 110 -280 0 -280 0 0 180 0
180 225 0 225 0 0 110 0 110 -225 0 -225 0 0 155 0 155 275 0 276 0 -3 113 -3
112 -482 3 -483 2 0 -670z"/>
<path d="M9360 8090 l0 -670 160 0 160 0 0 398 0 397 31 -55 c16 -30 101 -194
189 -365 87 -170 166 -325 176 -342 l19 -33 238 0 237 0 -2 668 -3 667 -157 3
-158 3 -2 -387 -3 -386 -193 386 -193 386 -250 0 -249 0 0 -670z"/>
<path d="M12717 8753 c-4 -3 -7 -305 -7 -670 l0 -663 495 0 495 0 0 110 0 110
-281 2 -282 3 1 160 c0 88 1 168 1 178 1 16 18 17 221 17 l220 0 0 110 0 110
-222 2 -223 3 -3 153 -3 152 281 0 281 0 -3 113 -3 112 -481 3 c-264 1 -484
-1 -487 -5z"/>
<path d="M13840 8090 l0 -670 160 0 160 0 0 393 0 392 22 -35 c20 -33 123
-232 302 -585 l81 -160 240 0 240 0 0 665 0 665 -157 2 -158 2 -2 -387 -3
-387 -195 388 -195 387 -247 0 -248 0 0 -670z"/>
<path d="M15227 8753 c-4 -3 -7 -305 -7 -670 l0 -663 495 0 495 0 0 110 0 110
-280 0 -280 0 0 180 0 180 225 0 226 0 -2 110 -1 110 -224 0 -224 0 0 155 0
155 275 0 276 0 -3 113 -3 112 -481 3 c-264 1 -484 -1 -487 -5z"/>
<path d="M16360 8090 l0 -670 210 0 210 0 2 327 3 326 105 -194 c57 -107 119
-221 137 -254 18 -33 50 -93 70 -132 l37 -73 228 0 c125 0 228 2 228 5 0 3
-62 98 -138 212 -77 115 -155 233 -175 264 l-35 57 44 6 c61 8 148 51 179 88
85 101 115 256 79 408 -28 119 -94 199 -208 250 -99 45 -161 50 -584 50 l-392
0 0 -670z m693 410 c54 -37 82 -105 82 -199 0 -97 -23 -144 -90 -186 -44 -27
-57 -30 -157 -34 l-108 -3 0 227 0 227 118 -4 c107 -3 122 -5 155 -28z"/>
<path d="M18090 8648 c-24 -62 -58 -153 -75 -203 -17 -49 -52 -144 -78 -210
-53 -138 -135 -360 -182 -490 -18 -49 -51 -139 -74 -199 -22 -60 -41 -113 -41
-117 0 -5 67 -9 149 -9 l148 0 36 93 35 92 245 3 244 2 18 -47 c10 -27 27 -69
38 -95 l19 -48 219 0 c121 0 219 4 219 9 0 10 -93 261 -160 431 -27 69 -64
168 -83 220 -31 86 -96 255 -117 305 -4 11 -18 49 -30 85 -12 36 -30 83 -40
105 -9 22 -30 73 -45 113 l-27 72 -187 0 -188 0 -43 -112z m216 -523 c8 -22
28 -79 44 -127 17 -47 37 -99 45 -115 l15 -28 -152 -3 c-83 -1 -153 -1 -155 2
-3 2 2 17 10 33 8 15 31 75 52 133 20 58 48 135 62 173 l27 67 18 -47 c11 -27
25 -66 34 -88z"/>
</g>
</svg>
